<?xml version="1.0" encoding="UTF-8" standalone="no"?>
<!DOCTYPE svg PUBLIC "-//W3C//DTD SVG 1.1//EN"
 "http://www.w3.org/Graphics/SVG/1.1/DTD/svg11.dtd">
<!-- Generated by graphviz version 2.43.0 (0)
 -->
<!-- Title: svmp::CoreException Pages: 1 -->
<svg width="628pt" height="212pt"
 viewBox="0.00 0.00 628.00 212.00" xmlns="http://www.w3.org/2000/svg" xmlns:xlink="http://www.w3.org/1999/xlink">
<g id="graph0" class="graph" transform="scale(1 1) rotate(0) translate(4 208)">
<title>svmp::CoreException</title>
<!-- Node1 -->
<g id="Node000001" class="node">
<title>Node1</title>
<g id="a_Node000001"><a xlink:title=" ">
<polygon fill="#999999" stroke="#666666" points="400,-111 280,-111 280,-92 400,-92 400,-111"/>
<text text-anchor="middle" x="340" y="-99" font-family="Helvetica,sans-Serif" font-size="10.00">svmp::CoreException</text>
</a>
</g>
</g>
<!-- Node4 -->
<g id="Node000004" class="node">
<title>Node4</title>
<g id="a_Node000004"><a xlink:href="classsvmp_1_1_dependency_exception.html" target="_top" xlink:title="A required dependency is missing or failed to load.">
<polygon fill="white" stroke="#666666" points="607,-204 449,-204 449,-185 607,-185 607,-204"/>
<text text-anchor="middle" x="528" y="-192" font-family="Helvetica,sans-Serif" font-size="10.00">svmp::DependencyException</text>
</a>
</g>
</g>
<!-- Node1&#45;&gt;Node4 -->
<g id="edge3_Node000001_Node000004" class="edge">
<title>Node1&#45;&gt;Node4</title>
<g id="a_edge3_Node000001_Node000004"><a xlink:title=" ">
<path fill="none" stroke="#63b8ff" d="M357.18,-118.32C374.87,-135.67 404.89,-162.16 436,-176.5 443.46,-179.94 451.56,-182.72 459.75,-184.97"/>
<polygon fill="#63b8ff" stroke="#63b8ff" points="359.49,-115.68 349.95,-111.06 354.53,-120.62 359.49,-115.68"/>
</a>
</g>
</g>
<!-- Node5 -->
<g id="Node000005" class="node">
<title>Node5</title>
<g id="a_Node000005"><a xlink:href="classsvmp_1_1_file_format_exception.html" target="_top" xlink:title=" ">
<polygon fill="white" stroke="#bfbfbf" points="602.5,-167 453.5,-167 453.5,-148 602.5,-148 602.5,-167"/>
<text text-anchor="middle" x="528" y="-155" font-family="Helvetica,sans-Serif" font-size="10.00">svmp::FileFormatException</text>
</a>
</g>
</g>
<!-- Node1&#45;&gt;Node5 -->
<g id="edge4_Node000001_Node000005" class="edge">
<title>Node1&#45;&gt;Node5</title>
<g id="a_edge4_Node000001_Node000005"><a xlink:title=" ">
<path fill="none" stroke="#63b8ff" d="M371.07,-115.19C389.51,-123.17 413.77,-132.92 436,-139.5 446.96,-142.75 458.85,-145.58 470.29,-147.97"/>
<polygon fill="#63b8ff" stroke="#63b8ff" points="372.3,-111.91 361.73,-111.09 369.48,-118.32 372.3,-111.91"/>
</a>
</g>
</g>
<!-- Node6 -->
<g id="Node000006" class="node">
<title>Node6</title>
<g id="a_Node000006"><a xlink:href="classsvmp_1_1_file_not_found_exception.html" target="_top" xlink:title=" ">
<polygon fill="white" stroke="#bfbfbf" points="608.5,-130 447.5,-130 447.5,-111 608.5,-111 608.5,-130"/>
<text text-anchor="middle" x="528" y="-118" font-family="Helvetica,sans-Serif" font-size="10.00">svmp::FileNotFoundException</text>
</a>
</g>
</g>
<!-- Node1&#45;&gt;Node6 -->
<g id="edge5_Node000001_Node000006" class="edge">
<title>Node1&#45;&gt;Node6</title>
<g id="a_edge5_Node000001_Node000006"><a xlink:title=" ">
<path fill="none" stroke="#63b8ff" d="M410.13,-108.56C422.24,-109.8 434.93,-111.1 447.3,-112.36"/>
<polygon fill="#63b8ff" stroke="#63b8ff" points="410.41,-105.07 400.11,-107.54 409.7,-112.04 410.41,-105.07"/>
</a>
</g>
</g>
<!-- Node7 -->
<g id="Node000007" class="node">
<title>Node7</title>
<g id="a_Node000007"><a xlink:href="classsvmp_1_1_index_out_of_range_exception.html" target="_top" xlink:title="An index is outside its valid range.">
<polygon fill="white" stroke="#666666" points="620,-93 436,-93 436,-74 620,-74 620,-93"/>
<text text-anchor="middle" x="528" y="-81" font-family="Helvetica,sans-Serif" font-size="10.00">svmp::IndexOutOfRangeException</text>
</a>
</g>
</g>
<!-- Node1&#45;&gt;Node7 -->
<g id="edge6_Node000001_Node000007" class="edge">
<title>Node1&#45;&gt;Node7</title>
<g id="a_edge6_Node000001_Node000007"><a xlink:title=" ">
<path fill="none" stroke="#63b8ff" d="M410.15,-94.81C418.52,-94 427.16,-93.16 435.78,-92.33"/>
<polygon fill="#63b8ff" stroke="#63b8ff" points="409.72,-91.33 400.11,-95.78 410.4,-98.3 409.72,-91.33"/>
</a>
</g>
</g>
<!-- Node8 -->
<g id="Node000008" class="node">
<title>Node8</title>
<g id="a_Node000008"><a xlink:href="classsvmp_1_1_not_implemented_exception.html" target="_top" xlink:title="A requested operation or feature is not implemented.">
<polygon fill="white" stroke="#666666" points="618,-56 438,-56 438,-37 618,-37 618,-56"/>
<text text-anchor="middle" x="528" y="-44" font-family="Helvetica,sans-Serif" font-size="10.00">svmp::NotImplementedException</text>
</a>
</g>
</g>
<!-- Node1&#45;&gt;Node8 -->
<g id="edge7_Node000001_Node000008" class="edge">
<title>Node1&#45;&gt;Node8</title>
<g id="a_edge7_Node000001_Node000008"><a xlink:title=" ">
<path fill="none" stroke="#63b8ff" d="M371.82,-87.9C390.18,-80.21 414.1,-70.88 436,-64.5 447.13,-61.26 459.2,-58.42 470.8,-56.01"/>
<polygon fill="#63b8ff" stroke="#63b8ff" points="370.34,-84.73 362.51,-91.87 373.08,-91.17 370.34,-84.73"/>
</a>
</g>
</g>
<!-- Node9 -->
<g id="Node000009" class="node">
<title>Node9</title>
<g id="a_Node000009"><a xlink:href="classsvmp_1_1_parse_exception.html" target="_top" xlink:title="A parsing or input&#45;format error.">
<polygon fill="white" stroke="#666666" points="590,-19 466,-19 466,0 590,0 590,-19"/>
<text text-anchor="middle" x="528" y="-7" font-family="Helvetica,sans-Serif" font-size="10.00">svmp::ParseException</text>
</a>
</g>
</g>
<!-- Node1&#45;&gt;Node9 -->
<g id="edge8_Node000001_Node000009" class="edge">
<title>Node1&#45;&gt;Node9</title>
<g id="a_edge8_Node000001_Node000009"><a xlink:title=" ">
<path fill="none" stroke="#63b8ff" d="M357.51,-84.64C375.27,-67.52 405.16,-41.59 436,-27.5 445.23,-23.28 455.43,-20.05 465.56,-17.58"/>
<polygon fill="#63b8ff" stroke="#63b8ff" points="354.9,-82.3 350.23,-91.81 359.81,-87.28 354.9,-82.3"/>
</a>
</g>
</g>
<!-- Node2 -->
<g id="Node000002" class="node">
<title>Node2</title>
<g id="a_Node000002"><a xlink:href="classsvmp_1_1_exception_base.html" target="_top" xlink:title=" ">
<polygon fill="white" stroke="#bfbfbf" points="244,-111 122,-111 122,-92 244,-92 244,-111"/>
<text text-anchor="middle" x="183" y="-99" font-family="Helvetica,sans-Serif" font-size="10.00">svmp::ExceptionBase</text>
</a>
</g>
</g>
<!-- Node2&#45;&gt;Node1 -->
<g id="edge1_Node000001_Node000002" class="edge">
<title>Node2&#45;&gt;Node1</title>
<g id="a_edge1_Node000001_Node000002"><a xlink:title=" ">
<path fill="none" stroke="#63b8ff" d="M254.58,-101.5C263.01,-101.5 271.56,-101.5 279.81,-101.5"/>
<polygon fill="#63b8ff" stroke="#63b8ff" points="254.37,-98 244.37,-101.5 254.37,-105 254.37,-98"/>
</a>
</g>
</g>
<!-- Node3 -->
<g id="Node000003" class="node">
<title>Node3</title>
<g id="a_Node000003"><a xlink:title=" ">
<polygon fill="white" stroke="#666666" points="86,-111 0,-111 0,-92 86,-92 86,-111"/>
<text text-anchor="middle" x="43" y="-99" font-family="Helvetica,sans-Serif" font-size="10.00">std::exception</text>
</a>
</g>
</g>
<!-- Node3&#45;&gt;Node2 -->
<g id="edge2_Node000002_Node000003" class="edge">
<title>Node3&#45;&gt;Node2</title>
<g id="a_edge2_Node000002_Node000003"><a xlink:title=" ">
<path fill="none" stroke="#63b8ff" d="M96.16,-101.5C104.54,-101.5 113.27,-101.5 121.82,-101.5"/>
<polygon fill="#63b8ff" stroke="#63b8ff" points="96.15,-98 86.15,-101.5 96.15,-105 96.15,-98"/>
</a>
</g>
</g>
</g>
</svg>
