<?xml version="1.0" encoding="UTF-8" standalone="no"?>
<!DOCTYPE svg PUBLIC "-//W3C//DTD SVG 1.1//EN"
 "http://www.w3.org/Graphics/SVG/1.1/DTD/svg11.dtd">
<!-- Generated by graphviz version 2.43.0 (0)
 -->
<!-- Title: ParameterLists Pages: 1 -->
<svg width="502pt" height="1752pt"
 viewBox="0.00 0.00 502.00 1752.00" xmlns="http://www.w3.org/2000/svg" xmlns:xlink="http://www.w3.org/1999/xlink">
<g id="graph0" class="graph" transform="scale(1 1) rotate(0) translate(4 1748)">
<title>ParameterLists</title>
<!-- Node1 -->
<g id="Node000001" class="node">
<title>Node1</title>
<g id="a_Node000001"><a xlink:title="Defines parameter name and value, and stores them in maps for settng values from XML.">
<polygon fill="#999999" stroke="#666666" points="89,-870 0,-870 0,-851 89,-851 89,-870"/>
<text text-anchor="middle" x="44.5" y="-858" font-family="Helvetica,sans-Serif" font-size="10.00">ParameterLists</text>
</a>
</g>
</g>
<!-- Node2 -->
<g id="Node000002" class="node">
<title>Node2</title>
<g id="a_Node000002"><a xlink:href="class_body_force_parameters.html" target="_top" xlink:title="Body force over a mesh using the &quot;Add_BF&quot; command.">
<polygon fill="white" stroke="#666666" points="283,-1744 160,-1744 160,-1725 283,-1725 283,-1744"/>
<text text-anchor="middle" x="221.5" y="-1732" font-family="Helvetica,sans-Serif" font-size="10.00">BodyForceParameters</text>
</a>
</g>
</g>
<!-- Node1&#45;&gt;Node2 -->
<g id="edge1_Node000001_Node000002" class="edge">
<title>Node1&#45;&gt;Node2</title>
<g id="a_edge1_Node000001_Node000002"><a xlink:title=" ">
<path fill="none" stroke="#63b8ff" d="M45.94,-880.33C48.82,-1002.75 66.78,-1652.55 125,-1716.5 133.97,-1726.36 146.5,-1731.84 159.54,-1734.72"/>
<polygon fill="#63b8ff" stroke="#63b8ff" points="49.43,-880.08 45.7,-870.17 42.43,-880.24 49.43,-880.08"/>
</a>
</g>
</g>
<!-- Node3 -->
<g id="Node000003" class="node">
<title>Node3</title>
<g id="a_Node000003"><a xlink:href="class_boundary_condition_parameters.html" target="_top" xlink:title="The BoundaryConditionParameters stores paramaters for various type of boundary conditions under the A...">
<polygon fill="white" stroke="#666666" points="304,-1707 139,-1707 139,-1688 304,-1688 304,-1707"/>
<text text-anchor="middle" x="221.5" y="-1695" font-family="Helvetica,sans-Serif" font-size="10.00">BoundaryConditionParameters</text>
</a>
</g>
</g>
<!-- Node1&#45;&gt;Node3 -->
<g id="edge2_Node000001_Node000003" class="edge">
<title>Node1&#45;&gt;Node3</title>
<g id="a_edge2_Node000001_Node000003"><a xlink:title=" ">
<path fill="none" stroke="#63b8ff" d="M46.02,-880.2C49.35,-999.16 69.26,-1618.53 125,-1679.5 128.98,-1683.86 133.66,-1687.36 138.78,-1690.16"/>
<polygon fill="#63b8ff" stroke="#63b8ff" points="49.51,-879.92 45.74,-870.02 42.52,-880.11 49.51,-879.92"/>
</a>
</g>
</g>
<!-- Node4 -->
<g id="Node000004" class="node">
<title>Node4</title>
<g id="a_Node000004"><a xlink:href="class_boundary_condition_r_c_r_parameters.html" target="_top" xlink:title="RCR values for Neumann BC type.">
<polygon fill="white" stroke="#666666" points="314,-1670 129,-1670 129,-1651 314,-1651 314,-1670"/>
<text text-anchor="middle" x="221.5" y="-1658" font-family="Helvetica,sans-Serif" font-size="10.00">BoundaryConditionRCRParameters</text>
</a>
</g>
</g>
<!-- Node1&#45;&gt;Node4 -->
<g id="edge3_Node000001_Node000004" class="edge">
<title>Node1&#45;&gt;Node4</title>
<g id="a_edge3_Node000001_Node000004"><a xlink:title=" ">
<path fill="none" stroke="#63b8ff" d="M46.12,-880.38C49.94,-996.58 71.79,-1584.56 125,-1642.5 127.97,-1645.73 131.32,-1648.49 134.94,-1650.84"/>
<polygon fill="#63b8ff" stroke="#63b8ff" points="49.61,-880.01 45.79,-870.12 42.62,-880.23 49.61,-880.01"/>
</a>
</g>
</g>
<!-- Node5 -->
<g id="Node000005" class="node">
<title>Node5</title>
<g id="a_Node000005"><a xlink:href="class_c_a_n_n_parameters.html" target="_top" xlink:title="The CANNParameters class stores the parameters table rows for xml element &quot;Constitutive_model type=CA...">
<polygon fill="white" stroke="#666666" points="272,-1633 171,-1633 171,-1614 272,-1614 272,-1633"/>
<text text-anchor="middle" x="221.5" y="-1621" font-family="Helvetica,sans-Serif" font-size="10.00">CANNParameters</text>
</a>
</g>
</g>
<!-- Node1&#45;&gt;Node5 -->
<g id="edge4_Node000001_Node000005" class="edge">
<title>Node1&#45;&gt;Node5</title>
<g id="a_edge4_Node000001_Node000005"><a xlink:title=" ">
<path fill="none" stroke="#63b8ff" d="M46.23,-880.49C50.55,-993.63 74.3,-1550.57 125,-1605.5 136.56,-1618.02 153.86,-1623.46 170.58,-1625.47"/>
<polygon fill="#63b8ff" stroke="#63b8ff" points="49.72,-880.05 45.85,-870.19 42.72,-880.31 49.72,-880.05"/>
</a>
</g>
</g>
<!-- Node6 -->
<g id="Node000006" class="node">
<title>Node6</title>
<g id="a_Node000006"><a xlink:href="class_c_a_n_n_row_parameters.html" target="_top" xlink:title="The CANNRowParameters class is used to store the parameters for each row of the CANN table for the xm...">
<polygon fill="white" stroke="#666666" points="282.5,-1596 160.5,-1596 160.5,-1577 282.5,-1577 282.5,-1596"/>
<text text-anchor="middle" x="221.5" y="-1584" font-family="Helvetica,sans-Serif" font-size="10.00">CANNRowParameters</text>
</a>
</g>
</g>
<!-- Node1&#45;&gt;Node6 -->
<g id="edge5_Node000001_Node000006" class="edge">
<title>Node1&#45;&gt;Node6</title>
<g id="a_edge5_Node000001_Node000006"><a xlink:title=" ">
<path fill="none" stroke="#63b8ff" d="M46.35,-880.52C51.19,-990.33 76.8,-1516.56 125,-1568.5 134.18,-1578.39 146.95,-1583.86 160.17,-1586.7"/>
<polygon fill="#63b8ff" stroke="#63b8ff" points="49.83,-880.05 45.9,-870.21 42.84,-880.36 49.83,-880.05"/>
</a>
</g>
</g>
<!-- Node7 -->
<g id="Node000007" class="node">
<title>Node7</title>
<g id="a_Node000007"><a xlink:href="class_constitutive_model_parameters.html" target="_top" xlink:title="The ConstitutiveModelParameters class store parameters for various constitutive models.">
<polygon fill="white" stroke="#666666" points="302,-1559 141,-1559 141,-1540 302,-1540 302,-1559"/>
<text text-anchor="middle" x="221.5" y="-1547" font-family="Helvetica,sans-Serif" font-size="10.00">ConstitutiveModelParameters</text>
</a>
</g>
</g>
<!-- Node1&#45;&gt;Node7 -->
<g id="edge6_Node000001_Node000007" class="edge">
<title>Node1&#45;&gt;Node7</title>
<g id="a_edge6_Node000001_Node000007"><a xlink:title=" ">
<path fill="none" stroke="#63b8ff" d="M46.48,-880.46C51.85,-986.67 79.28,-1482.54 125,-1531.5 129.49,-1536.31 134.83,-1540.07 140.65,-1542.99"/>
<polygon fill="#63b8ff" stroke="#63b8ff" points="49.96,-880.01 45.96,-870.2 42.97,-880.36 49.96,-880.01"/>
</a>
</g>
</g>
<!-- Node8 -->
<g id="Node000008" class="node">
<title>Node8</title>
<g id="a_Node000008"><a xlink:href="class_contact_parameters.html" target="_top" xlink:title="The ContactParameters class stores parameters for the &#39;Contact&#39;&#39; XML element used to specify paramete...">
<polygon fill="white" stroke="#666666" points="276.5,-1522 166.5,-1522 166.5,-1503 276.5,-1503 276.5,-1522"/>
<text text-anchor="middle" x="221.5" y="-1510" font-family="Helvetica,sans-Serif" font-size="10.00">ContactParameters</text>
</a>
</g>
</g>
<!-- Node1&#45;&gt;Node8 -->
<g id="edge7_Node000001_Node000008" class="edge">
<title>Node1&#45;&gt;Node8</title>
<g id="a_edge7_Node000001_Node000008"><a xlink:title=" ">
<path fill="none" stroke="#63b8ff" d="M46.61,-880.31C52.54,-982.66 81.74,-1448.49 125,-1494.5 135.63,-1505.81 150.96,-1511.31 166.23,-1513.73"/>
<polygon fill="#63b8ff" stroke="#63b8ff" points="50.1,-879.93 46.03,-870.14 43.11,-880.33 50.1,-879.93"/>
</a>
</g>
</g>
<!-- Node9 -->
<g id="Node000009" class="node">
<title>Node9</title>
<g id="a_Node000009"><a xlink:href="class_couple_gen_b_c_parameters.html" target="_top" xlink:title="Coupling to GenBC.">
<polygon fill="white" stroke="#666666" points="291,-1485 152,-1485 152,-1466 291,-1466 291,-1485"/>
<text text-anchor="middle" x="221.5" y="-1473" font-family="Helvetica,sans-Serif" font-size="10.00">CoupleGenBCParameters</text>
</a>
</g>
</g>
<!-- Node1&#45;&gt;Node9 -->
<g id="edge8_Node000001_Node000009" class="edge">
<title>Node1&#45;&gt;Node9</title>
<g id="a_edge8_Node000001_Node000009"><a xlink:title=" ">
<path fill="none" stroke="#63b8ff" d="M45.17,-880.15C43.99,-973.57 43.88,-1371.89 125,-1457.5 132.31,-1465.22 141.81,-1470.22 151.97,-1473.39"/>
<polygon fill="#63b8ff" stroke="#63b8ff" points="48.67,-880.14 45.31,-870.09 41.67,-880.04 48.67,-880.14"/>
</a>
</g>
</g>
<!-- Node10 -->
<g id="Node000010" class="node">
<title>Node10</title>
<g id="a_Node000010"><a xlink:href="class_coupling_interface_parameters.html" target="_top" xlink:title="svZeroDSolver coupling options under Add_BC (with Time_dependence Coupled).">
<polygon fill="white" stroke="#666666" points="300.5,-1448 142.5,-1448 142.5,-1429 300.5,-1429 300.5,-1448"/>
<text text-anchor="middle" x="221.5" y="-1436" font-family="Helvetica,sans-Serif" font-size="10.00">CouplingInterfaceParameters</text>
</a>
</g>
</g>
<!-- Node1&#45;&gt;Node10 -->
<g id="edge9_Node000001_Node000010" class="edge">
<title>Node1&#45;&gt;Node10</title>
<g id="a_edge9_Node000001_Node000010"><a xlink:title=" ">
<path fill="none" stroke="#63b8ff" d="M45.35,-880.62C45.13,-971.3 48.95,-1340.93 125,-1420.5 129.9,-1425.62 135.76,-1429.55 142.13,-1432.53"/>
<polygon fill="#63b8ff" stroke="#63b8ff" points="48.86,-880.37 45.4,-870.36 41.86,-880.34 48.86,-880.37"/>
</a>
</g>
</g>
<!-- Node11 -->
<g id="Node000011" class="node">
<title>Node11</title>
<g id="a_Node000011"><a xlink:href="class_directional_distribution_parameters.html" target="_top" xlink:title="The DirectionalDistributionParameters class stores directional distribution parameters for active str...">
<polygon fill="white" stroke="#666666" points="312.5,-1411 130.5,-1411 130.5,-1392 312.5,-1392 312.5,-1411"/>
<text text-anchor="middle" x="221.5" y="-1399" font-family="Helvetica,sans-Serif" font-size="10.00">DirectionalDistributionParameters</text>
</a>
</g>
</g>
<!-- Node1&#45;&gt;Node11 -->
<g id="edge10_Node000001_Node000011" class="edge">
<title>Node1&#45;&gt;Node11</title>
<g id="a_edge10_Node000001_Node000011"><a xlink:title=" ">
<path fill="none" stroke="#63b8ff" d="M45.57,-880.38C46.32,-966.92 53.81,-1309.74 125,-1383.5 128.16,-1386.78 131.72,-1389.56 135.56,-1391.93"/>
<polygon fill="#63b8ff" stroke="#63b8ff" points="49.07,-880.1 45.51,-870.12 42.07,-880.14 49.07,-880.1"/>
</a>
</g>
</g>
<!-- Node12 -->
<g id="Node000012" class="node">
<title>Node12</title>
<g id="a_Node000012"><a xlink:href="class_domain_parameters.html" target="_top" xlink:title="The DomainParameters class stores parameters for the XML &#39;Domain&#39; element to specify properties for s...">
<polygon fill="white" stroke="#666666" points="276.5,-1374 166.5,-1374 166.5,-1355 276.5,-1355 276.5,-1374"/>
<text text-anchor="middle" x="221.5" y="-1362" font-family="Helvetica,sans-Serif" font-size="10.00">DomainParameters</text>
</a>
</g>
</g>
<!-- Node1&#45;&gt;Node12 -->
<g id="edge11_Node000001_Node000012" class="edge">
<title>Node1&#45;&gt;Node12</title>
<g id="a_edge11_Node000001_Node000012"><a xlink:title=" ">
<path fill="none" stroke="#63b8ff" d="M45.83,-880.29C47.6,-962.82 58.69,-1278.57 125,-1346.5 135.84,-1357.61 151.23,-1363.06 166.49,-1365.48"/>
<polygon fill="#63b8ff" stroke="#63b8ff" points="49.32,-880.17 45.63,-870.24 42.32,-880.3 49.32,-880.17"/>
</a>
</g>
</g>
<!-- Node13 -->
<g id="Node000013" class="node">
<title>Node13</title>
<g id="a_Node000013"><a xlink:href="class_e_c_g_leads_parameters.html" target="_top" xlink:title=" ">
<polygon fill="white" stroke="#bfbfbf" points="282,-1337 161,-1337 161,-1318 282,-1318 282,-1337"/>
<text text-anchor="middle" x="221.5" y="-1325" font-family="Helvetica,sans-Serif" font-size="10.00">ECGLeadsParameters</text>
</a>
</g>
</g>
<!-- Node1&#45;&gt;Node13 -->
<g id="edge12_Node000001_Node000013" class="edge">
<title>Node1&#45;&gt;Node13</title>
<g id="a_edge12_Node000001_Node000013"><a xlink:title=" ">
<path fill="none" stroke="#63b8ff" d="M46.12,-880.27C48.98,-958.79 63.59,-1247.4 125,-1309.5 134.49,-1319.1 147.38,-1324.45 160.61,-1327.28"/>
<polygon fill="#63b8ff" stroke="#63b8ff" points="49.61,-880.13 45.77,-870.26 42.62,-880.37 49.61,-880.13"/>
</a>
</g>
</g>
<!-- Node14 -->
<g id="Node000014" class="node">
<title>Node14</title>
<g id="a_Node000014"><a xlink:href="class_equation_parameters.html" target="_top" xlink:title="The EquationParameters class stores parameters for the &#39;Add_equation&#39; XML element used to specify an ...">
<polygon fill="white" stroke="#666666" points="279,-1300 164,-1300 164,-1281 279,-1281 279,-1300"/>
<text text-anchor="middle" x="221.5" y="-1288" font-family="Helvetica,sans-Serif" font-size="10.00">EquationParameters</text>
</a>
</g>
</g>
<!-- Node1&#45;&gt;Node14 -->
<g id="edge13_Node000001_Node000014" class="edge">
<title>Node1&#45;&gt;Node14</title>
<g id="a_edge13_Node000001_Node000014"><a xlink:title=" ">
<path fill="none" stroke="#63b8ff" d="M46.47,-880.51C50.51,-955.21 68.53,-1216.27 125,-1272.5 135.28,-1282.74 149.43,-1288.13 163.69,-1290.77"/>
<polygon fill="#63b8ff" stroke="#63b8ff" points="49.95,-879.99 45.94,-870.19 42.96,-880.35 49.95,-879.99"/>
</a>
</g>
</g>
<!-- Node15 -->
<g id="Node000015" class="node">
<title>Node15</title>
<g id="a_Node000015"><a xlink:href="class_face_parameters.html" target="_top" xlink:title="The FaceParameters class is used to store parameters for the &#39;Add_face&#39; XML element.">
<polygon fill="white" stroke="#666666" points="268.5,-1263 174.5,-1263 174.5,-1244 268.5,-1244 268.5,-1263"/>
<text text-anchor="middle" x="221.5" y="-1251" font-family="Helvetica,sans-Serif" font-size="10.00">FaceParameters</text>
</a>
</g>
</g>
<!-- Node1&#45;&gt;Node15 -->
<g id="edge14_Node000001_Node000015" class="edge">
<title>Node1&#45;&gt;Node15</title>
<g id="a_edge14_Node000001_Node000015"><a xlink:title=" ">
<path fill="none" stroke="#63b8ff" d="M46.91,-880.45C52.27,-950.52 73.76,-1183.92 125,-1234.5 137.87,-1247.21 156.67,-1252.61 174.19,-1254.6"/>
<polygon fill="#63b8ff" stroke="#63b8ff" points="50.39,-880.04 46.16,-870.32 43.41,-880.55 50.39,-880.04"/>
</a>
</g>
</g>
<!-- Node16 -->
<g id="Node000016" class="node">
<title>Node16</title>
<g id="a_Node000016"><a xlink:href="class_fiber_reinforcement_stress_parameters.html" target="_top" xlink:title="The FiberReinforcementStressParameters class stores fiber reinforcement stress parameters for the &#39;Fi...">
<polygon fill="white" stroke="#666666" points="293,-1225.5 150,-1225.5 150,-1195.5 293,-1195.5 293,-1225.5"/>
<text text-anchor="start" x="158" y="-1213.5" font-family="Helvetica,sans-Serif" font-size="10.00">FiberReinforcementStress</text>
<text text-anchor="middle" x="221.5" y="-1202.5" font-family="Helvetica,sans-Serif" font-size="10.00">Parameters</text>
</a>
</g>
</g>
<!-- Node1&#45;&gt;Node16 -->
<g id="edge15_Node000001_Node000016" class="edge">
<title>Node1&#45;&gt;Node16</title>
<g id="a_edge15_Node000001_Node000016"><a xlink:title=" ">
<path fill="none" stroke="#63b8ff" d="M47.66,-880.25C55,-943.92 81.05,-1142.24 125,-1186.5 131.87,-1193.41 140.41,-1198.44 149.54,-1202.07"/>
<polygon fill="#63b8ff" stroke="#63b8ff" points="51.13,-879.84 46.54,-870.3 44.18,-880.63 51.13,-879.84"/>
</a>
</g>
</g>
<!-- Node17 -->
<g id="Node000017" class="node">
<title>Node17</title>
<g id="a_Node000017"><a xlink:href="class_fluid_viscosity_carreau_yasuda_parameters.html" target="_top" xlink:title=" ">
<polygon fill="white" stroke="#bfbfbf" points="300,-1177.5 143,-1177.5 143,-1147.5 300,-1147.5 300,-1177.5"/>
<text text-anchor="start" x="151" y="-1165.5" font-family="Helvetica,sans-Serif" font-size="10.00">FluidViscosityCarreauYasuda</text>
<text text-anchor="middle" x="221.5" y="-1154.5" font-family="Helvetica,sans-Serif" font-size="10.00">Parameters</text>
</a>
</g>
</g>
<!-- Node1&#45;&gt;Node17 -->
<g id="edge16_Node000001_Node000017" class="edge">
<title>Node1&#45;&gt;Node17</title>
<g id="a_edge16_Node000001_Node000017"><a xlink:title=" ">
<path fill="none" stroke="#63b8ff" d="M44.91,-880.31C44.53,-931.06 50.89,-1066.75 125,-1138.5 130.16,-1143.49 136.19,-1147.5 142.68,-1150.7"/>
<polygon fill="#63b8ff" stroke="#63b8ff" points="48.41,-880.13 45.09,-870.07 41.41,-880.01 48.41,-880.13"/>
</a>
</g>
</g>
<!-- Node18 -->
<g id="Node000018" class="node">
<title>Node18</title>
<g id="a_Node000018"><a xlink:href="class_fluid_viscosity_cassons_parameters.html" target="_top" xlink:title=" ">
<polygon fill="white" stroke="#bfbfbf" points="312,-1129 131,-1129 131,-1110 312,-1110 312,-1129"/>
<text text-anchor="middle" x="221.5" y="-1117" font-family="Helvetica,sans-Serif" font-size="10.00">FluidViscosityCassonsParameters</text>
</a>
</g>
</g>
<!-- Node1&#45;&gt;Node18 -->
<g id="edge17_Node000001_Node000018" class="edge">
<title>Node1&#45;&gt;Node18</title>
<g id="a_edge17_Node000001_Node000018"><a xlink:title=" ">
<path fill="none" stroke="#63b8ff" d="M45.68,-880.39C47.27,-926.84 58.08,-1042.9 125,-1101.5 128.81,-1104.83 133.03,-1107.63 137.53,-1109.98"/>
<polygon fill="#63b8ff" stroke="#63b8ff" points="49.18,-880.08 45.45,-870.16 42.18,-880.24 49.18,-880.08"/>
</a>
</g>
</g>
<!-- Node19 -->
<g id="Node000019" class="node">
<title>Node19</title>
<g id="a_Node000019"><a xlink:href="class_fluid_viscosity_newtonian_parameters.html" target="_top" xlink:title=" ">
<polygon fill="white" stroke="#bfbfbf" points="318,-1092 125,-1092 125,-1073 318,-1073 318,-1092"/>
<text text-anchor="middle" x="221.5" y="-1080" font-family="Helvetica,sans-Serif" font-size="10.00">FluidViscosityNewtonianParameters</text>
</a>
</g>
</g>
<!-- Node1&#45;&gt;Node19 -->
<g id="edge18_Node000001_Node000019" class="edge">
<title>Node1&#45;&gt;Node19</title>
<g id="a_edge18_Node000001_Node000019"><a xlink:title=" ">
<path fill="none" stroke="#63b8ff" d="M47.01,-880.12C51.29,-921.23 67.25,-1016.57 125,-1064.5 129.02,-1067.84 133.47,-1070.64 138.19,-1072.97"/>
<polygon fill="#63b8ff" stroke="#63b8ff" points="50.49,-879.68 46.09,-870.04 43.52,-880.32 50.49,-879.68"/>
</a>
</g>
</g>
<!-- Node20 -->
<g id="Node000020" class="node">
<title>Node20</title>
<g id="a_Node000020"><a xlink:href="class_fluid_viscosity_parameters.html" target="_top" xlink:title=" ">
<polygon fill="white" stroke="#bfbfbf" points="291.5,-1055 151.5,-1055 151.5,-1036 291.5,-1036 291.5,-1055"/>
<text text-anchor="middle" x="221.5" y="-1043" font-family="Helvetica,sans-Serif" font-size="10.00">FluidViscosityParameters</text>
</a>
</g>
</g>
<!-- Node1&#45;&gt;Node20 -->
<g id="edge19_Node000001_Node000020" class="edge">
<title>Node1&#45;&gt;Node20</title>
<g id="a_edge19_Node000001_Node000020"><a xlink:title=" ">
<path fill="none" stroke="#63b8ff" d="M48.94,-880.43C56.2,-916 76.57,-990.19 125,-1027.5 132.75,-1033.47 141.89,-1037.66 151.4,-1040.57"/>
<polygon fill="#63b8ff" stroke="#63b8ff" points="52.33,-879.51 47.03,-870.33 45.45,-880.81 52.33,-879.51"/>
</a>
</g>
</g>
<!-- Node21 -->
<g id="Node000021" class="node">
<title>Node21</title>
<g id="a_Node000021"><a xlink:href="class_general_simulation_parameters.html" target="_top" xlink:title="The GeneralSimulationParameters class stores paramaters for the &#39;GeneralSimulationParameters&#39; XML ele...">
<polygon fill="white" stroke="#666666" points="303,-1018 140,-1018 140,-999 303,-999 303,-1018"/>
<text text-anchor="middle" x="221.5" y="-1006" font-family="Helvetica,sans-Serif" font-size="10.00">GeneralSimulationParameters</text>
</a>
</g>
</g>
<!-- Node1&#45;&gt;Node21 -->
<g id="edge20_Node000001_Node000021" class="edge">
<title>Node1&#45;&gt;Node21</title>
<g id="a_edge20_Node000001_Node000021"><a xlink:title=" ">
<path fill="none" stroke="#63b8ff" d="M51.69,-880.06C61.97,-909.11 85.42,-963.18 125,-990.5 129.86,-993.85 135.18,-996.63 140.73,-998.92"/>
<polygon fill="#63b8ff" stroke="#63b8ff" points="54.9,-878.62 48.39,-870.25 48.27,-880.85 54.9,-878.62"/>
</a>
</g>
</g>
<!-- Node22 -->
<g id="Node000022" class="node">
<title>Node22</title>
<g id="a_Node000022"><a xlink:href="class_guccione_parameters.html" target="_top" xlink:title=" ">
<polygon fill="white" stroke="#bfbfbf" points="280,-981 163,-981 163,-962 280,-962 280,-981"/>
<text text-anchor="middle" x="221.5" y="-969" font-family="Helvetica,sans-Serif" font-size="10.00">GuccioneParameters</text>
</a>
</g>
</g>
<!-- Node1&#45;&gt;Node22 -->
<g id="edge21_Node000001_Node000022" class="edge">
<title>Node1&#45;&gt;Node22</title>
<g id="a_edge21_Node000001_Node000022"><a xlink:title=" ">
<path fill="none" stroke="#63b8ff" d="M56.02,-879.15C69.21,-900.7 93.92,-935.5 125,-953.5 136.46,-960.14 149.87,-964.4 162.96,-967.11"/>
<polygon fill="#63b8ff" stroke="#63b8ff" points="58.88,-877.12 50.78,-870.29 52.86,-880.68 58.88,-877.12"/>
</a>
</g>
</g>
<!-- Node23 -->
<g id="Node000023" class="node">
<title>Node23</title>
<g id="a_Node000023"><a xlink:href="class_holzapfel_gasser_ogden_parameters.html" target="_top" xlink:title=" ">
<polygon fill="white" stroke="#bfbfbf" points="313.5,-944 129.5,-944 129.5,-925 313.5,-925 313.5,-944"/>
<text text-anchor="middle" x="221.5" y="-932" font-family="Helvetica,sans-Serif" font-size="10.00">HolzapfelGasserOgdenParameters</text>
</a>
</g>
</g>
<!-- Node1&#45;&gt;Node23 -->
<g id="edge22_Node000001_Node000023" class="edge">
<title>Node1&#45;&gt;Node23</title>
<g id="a_edge22_Node000001_Node000023"><a xlink:title=" ">
<path fill="none" stroke="#63b8ff" d="M63.57,-876.67C78.86,-889.46 101.91,-906.74 125,-916.5 133.16,-919.95 141.99,-922.74 150.87,-925"/>
<polygon fill="#63b8ff" stroke="#63b8ff" points="65.79,-873.96 55.92,-870.1 61.23,-879.27 65.79,-873.96"/>
</a>
</g>
</g>
<!-- Node24 -->
<g id="Node000024" class="node">
<title>Node24</title>
<g id="a_Node000024"><a xlink:href="class_holzapfel_parameters.html" target="_top" xlink:title=" ">
<polygon fill="white" stroke="#bfbfbf" points="281,-907 162,-907 162,-888 281,-888 281,-907"/>
<text text-anchor="middle" x="221.5" y="-895" font-family="Helvetica,sans-Serif" font-size="10.00">HolzapfelParameters</text>
</a>
</g>
</g>
<!-- Node1&#45;&gt;Node24 -->
<g id="edge23_Node000001_Node000024" class="edge">
<title>Node1&#45;&gt;Node24</title>
<g id="a_edge23_Node000001_Node000024"><a xlink:title=" ">
<path fill="none" stroke="#63b8ff" d="M93.87,-872.45C104.13,-874.88 114.9,-877.34 125,-879.5 138.69,-882.43 153.55,-885.35 167.37,-887.96"/>
<polygon fill="#63b8ff" stroke="#63b8ff" points="94.37,-868.97 83.83,-870.06 92.74,-875.78 94.37,-868.97"/>
</a>
</g>
</g>
<!-- Node25 -->
<g id="Node000025" class="node">
<title>Node25</title>
<g id="a_Node000025"><a xlink:href="class_ionic_initial_state_parameters.html" target="_top" xlink:title="Generic ionic model initial conditions parameters.">
<polygon fill="white" stroke="#666666" points="296,-870 147,-870 147,-851 296,-851 296,-870"/>
<text text-anchor="middle" x="221.5" y="-858" font-family="Helvetica,sans-Serif" font-size="10.00">IonicInitialStateParameters</text>
</a>
</g>
</g>
<!-- Node1&#45;&gt;Node25 -->
<g id="edge24_Node000001_Node000025" class="edge">
<title>Node1&#45;&gt;Node25</title>
<g id="a_edge24_Node000001_Node000025"><a xlink:title=" ">
<path fill="none" stroke="#63b8ff" d="M99.31,-860.5C114.29,-860.5 130.82,-860.5 146.74,-860.5"/>
<polygon fill="#63b8ff" stroke="#63b8ff" points="99.21,-857 89.21,-860.5 99.21,-864 99.21,-857"/>
</a>
</g>
</g>
<!-- Node26 -->
<g id="Node000026" class="node">
<title>Node26</title>
<g id="a_Node000026"><a xlink:href="class_ionic_model_parameters.html" target="_top" xlink:title="Initial conditions parameters for a generic ionic model.">
<polygon fill="#fff0f0" stroke="red" points="284,-833 159,-833 159,-814 284,-814 284,-833"/>
<text text-anchor="middle" x="221.5" y="-821" font-family="Helvetica,sans-Serif" font-size="10.00">IonicModelParameters</text>
</a>
</g>
</g>
<!-- Node1&#45;&gt;Node26 -->
<g id="edge25_Node000001_Node000026" class="edge">
<title>Node1&#45;&gt;Node26</title>
<g id="a_edge25_Node000001_Node000026"><a xlink:title=" ">
<path fill="none" stroke="#63b8ff" d="M96.74,-848.69C106.13,-846.59 115.85,-844.45 125,-842.5 140.05,-839.3 156.46,-835.97 171.37,-833.02"/>
<polygon fill="#63b8ff" stroke="#63b8ff" points="95.7,-845.34 86.72,-850.95 97.24,-852.17 95.7,-845.34"/>
</a>
</g>
</g>
<!-- Node31 -->
<g id="Node000031" class="node">
<title>Node31</title>
<g id="a_Node000031"><a xlink:href="class_lee_sacks_parameters.html" target="_top" xlink:title=" ">
<polygon fill="white" stroke="#bfbfbf" points="280.5,-796 162.5,-796 162.5,-777 280.5,-777 280.5,-796"/>
<text text-anchor="middle" x="221.5" y="-784" font-family="Helvetica,sans-Serif" font-size="10.00">LeeSacksParameters</text>
</a>
</g>
</g>
<!-- Node1&#45;&gt;Node31 -->
<g id="edge27_Node000001_Node000031" class="edge">
<title>Node1&#45;&gt;Node31</title>
<g id="a_edge27_Node000001_Node000031"><a xlink:title=" ">
<path fill="none" stroke="#63b8ff" d="M63.91,-844.48C79.24,-831.98 102.18,-815.17 125,-805.5 136.67,-800.55 149.7,-796.87 162.29,-794.14"/>
<polygon fill="#63b8ff" stroke="#63b8ff" points="61.64,-841.81 56.22,-850.91 66.14,-847.18 61.64,-841.81"/>
</a>
</g>
</g>
<!-- Node32 -->
<g id="Node000032" class="node">
<title>Node32</title>
<g id="a_Node000032"><a xlink:href="class_linear_algebra_parameters.html" target="_top" xlink:title="The LinearAlgebraParameters class stores parameters for the &#39;Linear_algebra&#39; XML element.">
<polygon fill="white" stroke="#666666" points="291.5,-759 151.5,-759 151.5,-740 291.5,-740 291.5,-759"/>
<text text-anchor="middle" x="221.5" y="-747" font-family="Helvetica,sans-Serif" font-size="10.00">LinearAlgebraParameters</text>
</a>
</g>
</g>
<!-- Node1&#45;&gt;Node32 -->
<g id="edge28_Node000001_Node000032" class="edge">
<title>Node1&#45;&gt;Node32</title>
<g id="a_edge28_Node000001_Node000032"><a xlink:title=" ">
<path fill="none" stroke="#63b8ff" d="M56.1,-842.1C69.37,-820.84 94.15,-786.46 125,-768.5 133.03,-763.82 142.03,-760.28 151.19,-757.59"/>
<polygon fill="#63b8ff" stroke="#63b8ff" points="52.99,-840.47 50.83,-850.85 58.99,-844.09 52.99,-840.47"/>
</a>
</g>
</g>
<!-- Node33 -->
<g id="Node000033" class="node">
<title>Node33</title>
<g id="a_Node000033"><a xlink:href="class_linear_solver_parameters.html" target="_top" xlink:title="The LinearSolverParameters class stores parameters for the &#39;LS&#39; XML element.">
<polygon fill="white" stroke="#666666" points="288,-722 155,-722 155,-703 288,-703 288,-722"/>
<text text-anchor="middle" x="221.5" y="-710" font-family="Helvetica,sans-Serif" font-size="10.00">LinearSolverParameters</text>
</a>
</g>
</g>
<!-- Node1&#45;&gt;Node33 -->
<g id="edge29_Node000001_Node000033" class="edge">
<title>Node1&#45;&gt;Node33</title>
<g id="a_edge29_Node000001_Node000033"><a xlink:title=" ">
<path fill="none" stroke="#63b8ff" d="M51.77,-841.14C62.15,-812.37 85.73,-758.79 125,-731.5 133.88,-725.32 144.29,-721.05 154.91,-718.11"/>
<polygon fill="#63b8ff" stroke="#63b8ff" points="48.38,-840.25 48.44,-850.85 55,-842.53 48.38,-840.25"/>
</a>
</g>
</g>
<!-- Node34 -->
<g id="Node000034" class="node">
<title>Node34</title>
<g id="a_Node000034"><a xlink:href="class_mesh_parameters.html" target="_top" xlink:title="The MeshParameters class is used to store paramaters for the &#39;Add_mesh&#39; XML element.">
<polygon fill="white" stroke="#666666" points="270.5,-685 172.5,-685 172.5,-666 270.5,-666 270.5,-685"/>
<text text-anchor="middle" x="221.5" y="-673" font-family="Helvetica,sans-Serif" font-size="10.00">MeshParameters</text>
</a>
</g>
</g>
<!-- Node1&#45;&gt;Node34 -->
<g id="edge30_Node000001_Node000034" class="edge">
<title>Node1&#45;&gt;Node34</title>
<g id="a_edge30_Node000001_Node000034"><a xlink:title=" ">
<path fill="none" stroke="#63b8ff" d="M49.02,-840.73C56.4,-805.45 76.95,-731.81 125,-694.5 138.35,-684.13 155.84,-678.96 172.21,-676.52"/>
<polygon fill="#63b8ff" stroke="#63b8ff" points="45.55,-840.26 47.07,-850.75 52.42,-841.6 45.55,-840.26"/>
</a>
</g>
</g>
<!-- Node35 -->
<g id="Node000035" class="node">
<title>Node35</title>
<g id="a_Node000035"><a xlink:href="class_mooney_rivlin_parameters.html" target="_top" xlink:title=" ">
<polygon fill="white" stroke="#bfbfbf" points="291,-648 152,-648 152,-629 291,-629 291,-648"/>
<text text-anchor="middle" x="221.5" y="-636" font-family="Helvetica,sans-Serif" font-size="10.00">MooneyRivlinParameters</text>
</a>
</g>
</g>
<!-- Node1&#45;&gt;Node35 -->
<g id="edge31_Node000001_Node000035" class="edge">
<title>Node1&#45;&gt;Node35</title>
<g id="a_edge31_Node000001_Node000035"><a xlink:title=" ">
<path fill="none" stroke="#63b8ff" d="M47.14,-840.45C51.65,-799.32 67.96,-705.25 125,-657.5 132.78,-650.99 142.16,-646.49 151.96,-643.41"/>
<polygon fill="#63b8ff" stroke="#63b8ff" points="43.64,-840.28 46.16,-850.57 50.61,-840.95 43.64,-840.28"/>
</a>
</g>
</g>
<!-- Node36 -->
<g id="Node000036" class="node">
<title>Node36</title>
<g id="a_Node000036"><a xlink:href="class_neo_hookean_parameters.html" target="_top" xlink:title=" ">
<polygon fill="white" stroke="#bfbfbf" points="288.5,-611 154.5,-611 154.5,-592 288.5,-592 288.5,-611"/>
<text text-anchor="middle" x="221.5" y="-599" font-family="Helvetica,sans-Serif" font-size="10.00">NeoHookeanParameters</text>
</a>
</g>
</g>
<!-- Node1&#45;&gt;Node36 -->
<g id="edge32_Node000001_Node000036" class="edge">
<title>Node1&#45;&gt;Node36</title>
<g id="a_edge32_Node000001_Node000036"><a xlink:title=" ">
<path fill="none" stroke="#63b8ff" d="M45.75,-840.73C47.48,-794.57 58.59,-679.18 125,-620.5 133.23,-613.22 143.44,-608.42 154.09,-605.3"/>
<polygon fill="#63b8ff" stroke="#63b8ff" points="42.25,-840.81 45.49,-850.9 49.25,-840.99 42.25,-840.81"/>
</a>
</g>
</g>
<!-- Node37 -->
<g id="Node000037" class="node">
<title>Node37</title>
<g id="a_Node000037"><a xlink:href="class_output_parameters.html" target="_top" xlink:title="The OutputParameters class stores parameters for the Output XML element under Add_equation.">
<polygon fill="white" stroke="#666666" points="274,-574 169,-574 169,-555 274,-555 274,-574"/>
<text text-anchor="middle" x="221.5" y="-562" font-family="Helvetica,sans-Serif" font-size="10.00">OutputParameters</text>
</a>
</g>
</g>
<!-- Node1&#45;&gt;Node37 -->
<g id="edge33_Node000001_Node000037" class="edge">
<title>Node1&#45;&gt;Node37</title>
<g id="a_edge33_Node000001_Node000037"><a xlink:title=" ">
<path fill="none" stroke="#63b8ff" d="M44.73,-840.54C43.92,-789.45 49.34,-653.12 125,-583.5 136.82,-572.63 153.02,-567.21 168.72,-564.69"/>
<polygon fill="#63b8ff" stroke="#63b8ff" points="41.24,-840.95 45,-850.85 48.23,-840.76 41.24,-840.95"/>
</a>
</g>
</g>
<!-- Node38 -->
<g id="Node000038" class="node">
<title>Node38</title>
<g id="a_Node000038"><a xlink:href="class_precomputed_solution_parameters.html" target="_top" xlink:title="The PrecomputedSolutionParameters class stores parameters for the &#39;Precomputed_solution&#39; XML element ...">
<polygon fill="white" stroke="#666666" points="309.5,-537 133.5,-537 133.5,-518 309.5,-518 309.5,-537"/>
<text text-anchor="middle" x="221.5" y="-525" font-family="Helvetica,sans-Serif" font-size="10.00">PrecomputedSolutionParameters</text>
</a>
</g>
</g>
<!-- Node1&#45;&gt;Node38 -->
<g id="edge34_Node000001_Node000038" class="edge">
<title>Node1&#45;&gt;Node38</title>
<g id="a_edge34_Node000001_Node000038"><a xlink:title=" ">
<path fill="none" stroke="#63b8ff" d="M47.78,-840.59C55.32,-778.14 81.53,-587.79 125,-546.5 128.92,-542.77 133.36,-539.68 138.11,-537.13"/>
<polygon fill="#63b8ff" stroke="#63b8ff" points="44.28,-840.36 46.58,-850.7 51.23,-841.18 44.28,-840.36"/>
</a>
</g>
</g>
<!-- Node39 -->
<g id="Node000039" class="node">
<title>Node39</title>
<g id="a_Node000039"><a xlink:href="class_projection_parameters.html" target="_top" xlink:title="The ProjectionParameters class stores parameters for the &#39;Add_projection&#39; XML element used for fluid&#45;...">
<polygon fill="white" stroke="#666666" points="282,-500 161,-500 161,-481 282,-481 282,-500"/>
<text text-anchor="middle" x="221.5" y="-488" font-family="Helvetica,sans-Serif" font-size="10.00">ProjectionParameters</text>
</a>
</g>
</g>
<!-- Node1&#45;&gt;Node39 -->
<g id="edge35_Node000001_Node000039" class="edge">
<title>Node1&#45;&gt;Node39</title>
<g id="a_edge35_Node000001_Node000039"><a xlink:title=" ">
<path fill="none" stroke="#63b8ff" d="M47.18,-840.92C53.3,-774.1 76.66,-556.58 125,-509.5 134.69,-500.06 147.65,-494.67 160.89,-491.71"/>
<polygon fill="#63b8ff" stroke="#63b8ff" points="43.68,-840.67 46.28,-850.94 50.66,-841.29 43.68,-840.67"/>
</a>
</g>
</g>
<!-- Node40 -->
<g id="Node000040" class="node">
<title>Node40</title>
<g id="a_Node000040"><a xlink:href="class_r_i_s_projection_parameters.html" target="_top" xlink:title="The RISProjectionParameters class stores parameters for the &#39;Add_RIS_projection&#39; XML element used for...">
<polygon fill="white" stroke="#666666" points="290,-463 153,-463 153,-444 290,-444 290,-463"/>
<text text-anchor="middle" x="221.5" y="-451" font-family="Helvetica,sans-Serif" font-size="10.00">RISProjectionParameters</text>
</a>
</g>
</g>
<!-- Node1&#45;&gt;Node40 -->
<g id="edge36_Node000001_Node000040" class="edge">
<title>Node1&#45;&gt;Node40</title>
<g id="a_edge36_Node000001_Node000040"><a xlink:title=" ">
<path fill="none" stroke="#63b8ff" d="M46.76,-840.29C51.68,-768.2 72,-525.2 125,-472.5 132.67,-464.87 142.48,-459.87 152.87,-456.66"/>
<polygon fill="#63b8ff" stroke="#63b8ff" points="43.24,-840.47 46.08,-850.68 50.23,-840.93 43.24,-840.47"/>
</a>
</g>
</g>
<!-- Node41 -->
<g id="Node000041" class="node">
<title>Node41</title>
<g id="a_Node000041"><a xlink:href="class_remesher_parameters.html" target="_top" xlink:title="The RemesherParameters class stores parameters for the &#39;Remesher&#39; XML element used for remeshing.">
<polygon fill="white" stroke="#666666" points="282.5,-426 160.5,-426 160.5,-407 282.5,-407 282.5,-426"/>
<text text-anchor="middle" x="221.5" y="-414" font-family="Helvetica,sans-Serif" font-size="10.00">RemesherParameters</text>
</a>
</g>
</g>
<!-- Node1&#45;&gt;Node41 -->
<g id="edge37_Node000001_Node000041" class="edge">
<title>Node1&#45;&gt;Node41</title>
<g id="a_edge37_Node000001_Node000041"><a xlink:title=" ">
<path fill="none" stroke="#63b8ff" d="M46.34,-840.85C50,-765.2 67.02,-494.15 125,-435.5 134.39,-426 147.08,-420.56 160.14,-417.57"/>
<polygon fill="#63b8ff" stroke="#63b8ff" points="42.85,-840.75 45.88,-850.9 49.84,-841.07 42.85,-840.75"/>
</a>
</g>
</g>
<!-- Node42 -->
<g id="Node000042" class="node">
<title>Node42</title>
<g id="a_Node000042"><a xlink:href="class_solid_viscosity_newtonian_parameters.html" target="_top" xlink:title=" ">
<polygon fill="white" stroke="#bfbfbf" points="318,-389 125,-389 125,-370 318,-370 318,-389"/>
<text text-anchor="middle" x="221.5" y="-377" font-family="Helvetica,sans-Serif" font-size="10.00">SolidViscosityNewtonianParameters</text>
</a>
</g>
</g>
<!-- Node1&#45;&gt;Node42 -->
<g id="edge38_Node000001_Node000042" class="edge">
<title>Node1&#45;&gt;Node42</title>
<g id="a_edge38_Node000001_Node000042"><a xlink:title=" ">
<path fill="none" stroke="#63b8ff" d="M46.03,-840.7C48.58,-760.76 62.2,-462.95 125,-398.5 128.66,-394.75 132.83,-391.62 137.34,-389.03"/>
<polygon fill="#63b8ff" stroke="#63b8ff" points="42.52,-840.76 45.73,-850.86 49.52,-840.97 42.52,-840.76"/>
</a>
</g>
</g>
<!-- Node43 -->
<g id="Node000043" class="node">
<title>Node43</title>
<g id="a_Node000043"><a xlink:href="class_solid_viscosity_parameters.html" target="_top" xlink:title=" ">
<polygon fill="white" stroke="#bfbfbf" points="291.5,-352 151.5,-352 151.5,-333 291.5,-333 291.5,-352"/>
<text text-anchor="middle" x="221.5" y="-340" font-family="Helvetica,sans-Serif" font-size="10.00">SolidViscosityParameters</text>
</a>
</g>
</g>
<!-- Node1&#45;&gt;Node43 -->
<g id="edge39_Node000001_Node000043" class="edge">
<title>Node1&#45;&gt;Node43</title>
<g id="a_edge39_Node000001_Node000043"><a xlink:title=" ">
<path fill="none" stroke="#63b8ff" d="M45.75,-840.75C47.23,-756.95 57.32,-431.83 125,-361.5 132.15,-354.07 141.32,-349.1 151.13,-345.84"/>
<polygon fill="#63b8ff" stroke="#63b8ff" points="42.25,-840.87 45.59,-850.92 49.25,-840.98 42.25,-840.87"/>
</a>
</g>
</g>
<!-- Node44 -->
<g id="Node000044" class="node">
<title>Node44</title>
<g id="a_Node000044"><a xlink:href="class_solid_viscosity_potential_parameters.html" target="_top" xlink:title=" ">
<polygon fill="white" stroke="#bfbfbf" points="313.5,-315 129.5,-315 129.5,-296 313.5,-296 313.5,-315"/>
<text text-anchor="middle" x="221.5" y="-303" font-family="Helvetica,sans-Serif" font-size="10.00">SolidViscosityPotentialParameters</text>
</a>
</g>
</g>
<!-- Node1&#45;&gt;Node44 -->
<g id="edge40_Node000001_Node000044" class="edge">
<title>Node1&#45;&gt;Node44</title>
<g id="a_edge40_Node000001_Node000044"><a xlink:title=" ">
<path fill="none" stroke="#63b8ff" d="M45.51,-840.42C46,-752.27 52.52,-400.63 125,-324.5 128.5,-320.83 132.49,-317.75 136.8,-315.19"/>
<polygon fill="#63b8ff" stroke="#63b8ff" points="42.01,-840.64 45.48,-850.65 49.01,-840.66 42.01,-840.64"/>
</a>
</g>
</g>
<!-- Node45 -->
<g id="Node000045" class="node">
<title>Node45</title>
<g id="a_Node000045"><a xlink:href="class_st_venant_kirchhoff_parameters.html" target="_top" xlink:title=" ">
<polygon fill="white" stroke="#bfbfbf" points="301,-278 142,-278 142,-259 301,-259 301,-278"/>
<text text-anchor="middle" x="221.5" y="-266" font-family="Helvetica,sans-Serif" font-size="10.00">StVenantKirchhoffParameters</text>
</a>
</g>
</g>
<!-- Node1&#45;&gt;Node45 -->
<g id="edge41_Node000001_Node000045" class="edge">
<title>Node1&#45;&gt;Node45</title>
<g id="a_edge41_Node000001_Node000045"><a xlink:title=" ">
<path fill="none" stroke="#63b8ff" d="M45.3,-840.8C44.82,-749.64 47.52,-369.65 125,-287.5 129.76,-282.46 135.44,-278.54 141.63,-275.52"/>
<polygon fill="#63b8ff" stroke="#63b8ff" points="41.8,-840.89 45.38,-850.87 48.8,-840.84 41.8,-840.89"/>
</a>
</g>
</g>
<!-- Node46 -->
<g id="Node000046" class="node">
<title>Node46</title>
<g id="a_Node000046"><a xlink:href="class_stimulus_box_parameters.html" target="_top" xlink:title="Stores &lt;Box&gt; parameters for CEP stimulus spatial bounds.">
<polygon fill="white" stroke="#666666" points="288.5,-241 154.5,-241 154.5,-222 288.5,-222 288.5,-241"/>
<text text-anchor="middle" x="221.5" y="-229" font-family="Helvetica,sans-Serif" font-size="10.00">StimulusBoxParameters</text>
</a>
</g>
</g>
<!-- Node1&#45;&gt;Node46 -->
<g id="edge42_Node000001_Node000046" class="edge">
<title>Node1&#45;&gt;Node46</title>
<g id="a_edge42_Node000001_Node000046"><a xlink:title=" ">
<path fill="none" stroke="#63b8ff" d="M45.12,-840.45C43.72,-745.09 42.71,-338.48 125,-250.5 132.85,-242.1 143.27,-236.83 154.34,-233.61"/>
<polygon fill="#63b8ff" stroke="#63b8ff" points="41.62,-840.77 45.29,-850.71 48.62,-840.65 41.62,-840.77"/>
</a>
</g>
</g>
<!-- Node47 -->
<g id="Node000047" class="node">
<title>Node47</title>
<g id="a_Node000047"><a xlink:href="class_stimulus_parameters.html" target="_top" xlink:title="The StimulusParameters class stores parameters for &#39;Stimulus&#39; XML element used to parameters for pace...">
<polygon fill="white" stroke="#666666" points="279,-204 164,-204 164,-185 279,-185 279,-204"/>
<text text-anchor="middle" x="221.5" y="-192" font-family="Helvetica,sans-Serif" font-size="10.00">StimulusParameters</text>
</a>
</g>
</g>
<!-- Node1&#45;&gt;Node47 -->
<g id="edge43_Node000001_Node000047" class="edge">
<title>Node1&#45;&gt;Node47</title>
<g id="a_edge43_Node000001_Node000047"><a xlink:title=" ">
<path fill="none" stroke="#63b8ff" d="M46.57,-840.61C52.35,-736.86 81.12,-260.76 125,-213.5 135.01,-202.72 149.24,-197.08 163.68,-194.32"/>
<polygon fill="#63b8ff" stroke="#63b8ff" points="43.07,-840.49 46.02,-850.66 50.06,-840.87 43.07,-840.49"/>
</a>
</g>
</g>
<!-- Node48 -->
<g id="Node000048" class="node">
<title>Node48</title>
<g id="a_Node000048"><a xlink:href="class_stimulus_sphere_parameters.html" target="_top" xlink:title="Stores &lt;Sphere&gt; parameters for CEP stimulus spatial bounds.">
<polygon fill="white" stroke="#666666" points="296,-167 147,-167 147,-148 296,-148 296,-167"/>
<text text-anchor="middle" x="221.5" y="-155" font-family="Helvetica,sans-Serif" font-size="10.00">StimulusSphereParameters</text>
</a>
</g>
</g>
<!-- Node1&#45;&gt;Node48 -->
<g id="edge44_Node000001_Node000048" class="edge">
<title>Node1&#45;&gt;Node48</title>
<g id="a_edge44_Node000001_Node000048"><a xlink:title=" ">
<path fill="none" stroke="#63b8ff" d="M46.42,-840.83C51.62,-734.04 78.61,-226.79 125,-176.5 130.96,-170.04 138.44,-165.42 146.57,-162.16"/>
<polygon fill="#63b8ff" stroke="#63b8ff" points="42.93,-840.71 45.94,-850.87 49.92,-841.05 42.93,-840.71"/>
</a>
</g>
</g>
<!-- Node49 -->
<g id="Node000049" class="node">
<title>Node49</title>
<g id="a_Node000049"><a xlink:href="class_u_r_i_s_face_parameters.html" target="_top" xlink:title="The URISFaceParameters class is used to store parameters for the &#39;Add_URIS_face&#39; XML element.">
<polygon fill="white" stroke="#666666" points="280,-130 163,-130 163,-111 280,-111 280,-130"/>
<text text-anchor="middle" x="221.5" y="-118" font-family="Helvetica,sans-Serif" font-size="10.00">URISFaceParameters</text>
</a>
</g>
</g>
<!-- Node1&#45;&gt;Node49 -->
<g id="edge45_Node000001_Node000049" class="edge">
<title>Node1&#45;&gt;Node49</title>
<g id="a_edge45_Node000001_Node000049"><a xlink:title=" ">
<path fill="none" stroke="#63b8ff" d="M46.3,-840.81C50.97,-730.56 76.14,-192.78 125,-139.5 134.71,-128.91 148.5,-123.26 162.59,-120.43"/>
<polygon fill="#63b8ff" stroke="#63b8ff" points="42.8,-840.73 45.88,-850.87 49.8,-841.03 42.8,-840.73"/>
</a>
</g>
</g>
<!-- Node50 -->
<g id="Node000050" class="node">
<title>Node50</title>
<g id="a_Node000050"><a xlink:href="class_u_r_i_s_mesh_parameters.html" target="_top" xlink:title="The URISMeshParameters class is used to store paramaters for the &#39;Add_URIS_mesh&#39; XML element.">
<polygon fill="white" stroke="#666666" points="282.5,-93 160.5,-93 160.5,-74 282.5,-74 282.5,-93"/>
<text text-anchor="middle" x="221.5" y="-81" font-family="Helvetica,sans-Serif" font-size="10.00">URISMeshParameters</text>
</a>
</g>
</g>
<!-- Node1&#45;&gt;Node50 -->
<g id="edge46_Node000001_Node000050" class="edge">
<title>Node1&#45;&gt;Node50</title>
<g id="a_edge46_Node000001_Node000050"><a xlink:title=" ">
<path fill="none" stroke="#63b8ff" d="M46.19,-840.88C50.35,-727.44 73.65,-158.8 125,-102.5 134.11,-92.51 146.86,-86.91 160.07,-83.93"/>
<polygon fill="#63b8ff" stroke="#63b8ff" points="42.69,-840.79 45.83,-850.91 49.68,-841.05 42.69,-840.79"/>
</a>
</g>
</g>
<!-- Node51 -->
<g id="Node000051" class="node">
<title>Node51</title>
<g id="a_Node000051"><a xlink:href="class_variable_wall_props_parameters.html" target="_top" xlink:title="The VariableWallPropsParameters class stores parameters for variable wall properties for the CMM equa...">
<polygon fill="white" stroke="#666666" points="301.5,-56 141.5,-56 141.5,-37 301.5,-37 301.5,-56"/>
<text text-anchor="middle" x="221.5" y="-44" font-family="Helvetica,sans-Serif" font-size="10.00">VariableWallPropsParameters</text>
</a>
</g>
</g>
<!-- Node1&#45;&gt;Node51 -->
<g id="edge47_Node000001_Node000051" class="edge">
<title>Node1&#45;&gt;Node51</title>
<g id="a_edge47_Node000001_Node000051"><a xlink:title=" ">
<path fill="none" stroke="#63b8ff" d="M46.09,-840.66C49.79,-723.47 71.2,-124.77 125,-65.5 129.66,-60.37 135.27,-56.39 141.42,-53.33"/>
<polygon fill="#63b8ff" stroke="#63b8ff" points="42.59,-840.89 45.78,-850.99 49.58,-841.11 42.59,-840.89"/>
</a>
</g>
</g>
<!-- Node52 -->
<g id="Node000052" class="node">
<title>Node52</title>
<g id="a_Node000052"><a xlink:href="classsv_zero_d_solver_interface_parameters.html" target="_top" xlink:title=" ">
<polygon fill="white" stroke="#bfbfbf" points="315.5,-19 127.5,-19 127.5,0 315.5,0 315.5,-19"/>
<text text-anchor="middle" x="221.5" y="-7" font-family="Helvetica,sans-Serif" font-size="10.00">svZeroDSolverInterfaceParameters</text>
</a>
</g>
</g>
<!-- Node1&#45;&gt;Node52 -->
<g id="edge48_Node000001_Node000052" class="edge">
<title>Node1&#45;&gt;Node52</title>
<g id="a_edge48_Node000001_Node000052"><a xlink:title=" ">
<path fill="none" stroke="#63b8ff" d="M46.01,-840.49C49.25,-719.7 68.74,-90.75 125,-28.5 128.29,-24.86 132.05,-21.81 136.15,-19.24"/>
<polygon fill="#63b8ff" stroke="#63b8ff" points="42.5,-840.74 45.74,-850.83 49.5,-840.93 42.5,-840.74"/>
</a>
</g>
</g>
<!-- Node27 -->
<g id="Node000027" class="node">
<title>Node27</title>
<g id="a_Node000027"><a xlink:href="class_aliev_panfilov_1_1_parameters.html" target="_top" xlink:title="Model parameters class.">
<polygon fill="white" stroke="#666666" points="494,-833 354,-833 354,-814 494,-814 494,-833"/>
<text text-anchor="middle" x="424" y="-821" font-family="Helvetica,sans-Serif" font-size="10.00">AlievPanfilov::Parameters</text>
</a>
</g>
</g>
<!-- Node26&#45;&gt;Node27 -->
<g id="edge26_Node000026_Node000027" class="edge">
<title>Node26&#45;&gt;Node27</title>
<g id="a_edge26_Node000026_Node000027"><a xlink:title=" ">
<path fill="none" stroke="#63b8ff" d="M294.04,-823.5C313.51,-823.5 334.56,-823.5 353.89,-823.5"/>
<polygon fill="#63b8ff" stroke="#63b8ff" points="294.02,-820 284.02,-823.5 294.02,-827 294.02,-820"/>
</a>
</g>
</g>
</g>
</svg>
