<?xml version="1.0" encoding="UTF-8" standalone="no"?>
<!DOCTYPE svg PUBLIC "-//W3C//DTD SVG 1.1//EN"
 "http://www.w3.org/Graphics/SVG/1.1/DTD/svg11.dtd">
<!-- Generated by graphviz version 2.43.0 (0)
 -->
<!-- Title: Graphical Class Hierarchy Pages: 1 -->
<svg width="524pt" height="1789pt"
 viewBox="0.00 0.00 524.00 1789.00" xmlns="http://www.w3.org/2000/svg" xmlns:xlink="http://www.w3.org/1999/xlink">
<g id="graph0" class="graph" transform="scale(1 1) rotate(0) translate(4 1785)">
<title>Graphical Class Hierarchy</title>
<!-- Node0 -->
<g id="Node000000" class="node">
<title>Node0</title>
<g id="a_Node000000"><a xlink:href="class_parameter_lists.html" target="_top" xlink:title="Defines parameter name and value, and stores them in maps for settng values from XML.">
<polygon fill="white" stroke="#666666" points="89,-888 0,-888 0,-869 89,-869 89,-888"/>
<text text-anchor="middle" x="44.5" y="-876" font-family="Helvetica,sans-Serif" font-size="10.00">ParameterLists</text>
</a>
</g>
</g>
<!-- Node1 -->
<g id="Node000001" class="node">
<title>Node1</title>
<g id="a_Node000001"><a xlink:href="class_body_force_parameters.html" target="_top" xlink:title="Body force over a mesh using the &quot;Add_BF&quot; command.">
<polygon fill="white" stroke="#666666" points="283,-1781 160,-1781 160,-1762 283,-1762 283,-1781"/>
<text text-anchor="middle" x="221.5" y="-1769" font-family="Helvetica,sans-Serif" font-size="10.00">BodyForceParameters</text>
</a>
</g>
</g>
<!-- Node0&#45;&gt;Node1 -->
<g id="edge9_Node000000_Node000001" class="edge">
<title>Node0&#45;&gt;Node1</title>
<g id="a_edge9_Node000000_Node000001"><a xlink:title=" ">
<path fill="none" stroke="#63b8ff" d="M45.9,-898.38C48.55,-1022.51 65.5,-1688.02 125,-1753.5 133.96,-1763.36 146.49,-1768.86 159.52,-1771.73"/>
<polygon fill="#63b8ff" stroke="#63b8ff" points="49.39,-898.02 45.68,-888.09 42.39,-898.16 49.39,-898.02"/>
</a>
</g>
</g>
<!-- Node2 -->
<g id="Node000002" class="node">
<title>Node2</title>
<g id="a_Node000002"><a xlink:href="class_boundary_condition_parameters.html" target="_top" xlink:title="The BoundaryConditionParameters stores paramaters for various type of boundary conditions under the A...">
<polygon fill="white" stroke="#666666" points="304,-1744 139,-1744 139,-1725 304,-1725 304,-1744"/>
<text text-anchor="middle" x="221.5" y="-1732" font-family="Helvetica,sans-Serif" font-size="10.00">BoundaryConditionParameters</text>
</a>
</g>
</g>
<!-- Node0&#45;&gt;Node2 -->
<g id="edge10_Node000000_Node000002" class="edge">
<title>Node0&#45;&gt;Node2</title>
<g id="a_edge10_Node000000_Node000002"><a xlink:title=" ">
<path fill="none" stroke="#63b8ff" d="M45.98,-898.29C49.07,-1019.09 67.99,-1654.01 125,-1716.5 128.98,-1720.86 133.66,-1724.37 138.76,-1727.17"/>
<polygon fill="#63b8ff" stroke="#63b8ff" points="49.48,-898.15 45.73,-888.24 42.48,-898.33 49.48,-898.15"/>
</a>
</g>
</g>
<!-- Node3 -->
<g id="Node000003" class="node">
<title>Node3</title>
<g id="a_Node000003"><a xlink:href="class_boundary_condition_r_c_r_parameters.html" target="_top" xlink:title="RCR values for Neumann BC type.">
<polygon fill="white" stroke="#666666" points="314,-1707 129,-1707 129,-1688 314,-1688 314,-1707"/>
<text text-anchor="middle" x="221.5" y="-1695" font-family="Helvetica,sans-Serif" font-size="10.00">BoundaryConditionRCRParameters</text>
</a>
</g>
</g>
<!-- Node0&#45;&gt;Node3 -->
<g id="edge11_Node000000_Node000003" class="edge">
<title>Node0&#45;&gt;Node3</title>
<g id="a_edge11_Node000000_Node000003"><a xlink:title=" ">
<path fill="none" stroke="#63b8ff" d="M46.06,-898.14C49.61,-1015.39 70.47,-1619.98 125,-1679.5 127.96,-1682.73 131.31,-1685.5 134.93,-1687.85"/>
<polygon fill="#63b8ff" stroke="#63b8ff" points="49.56,-897.97 45.77,-888.08 42.56,-898.18 49.56,-897.97"/>
</a>
</g>
</g>
<!-- Node4 -->
<g id="Node000004" class="node">
<title>Node4</title>
<g id="a_Node000004"><a xlink:href="class_c_a_n_n_parameters.html" target="_top" xlink:title="The CANNParameters class stores the parameters table rows for xml element &quot;Constitutive_model type=CA...">
<polygon fill="white" stroke="#666666" points="272,-1670 171,-1670 171,-1651 272,-1651 272,-1670"/>
<text text-anchor="middle" x="221.5" y="-1658" font-family="Helvetica,sans-Serif" font-size="10.00">CANNParameters</text>
</a>
</g>
</g>
<!-- Node0&#45;&gt;Node4 -->
<g id="edge12_Node000000_Node000004" class="edge">
<title>Node0&#45;&gt;Node4</title>
<g id="a_edge12_Node000000_Node000004"><a xlink:title=" ">
<path fill="none" stroke="#63b8ff" d="M46.17,-898.29C50.21,-1012.66 72.99,-1586 125,-1642.5 136.54,-1655.04 153.84,-1660.48 170.56,-1662.48"/>
<polygon fill="#63b8ff" stroke="#63b8ff" points="49.66,-898.04 45.82,-888.17 42.67,-898.28 49.66,-898.04"/>
</a>
</g>
</g>
<!-- Node5 -->
<g id="Node000005" class="node">
<title>Node5</title>
<g id="a_Node000005"><a xlink:href="class_c_a_n_n_row_parameters.html" target="_top" xlink:title="The CANNRowParameters class is used to store the parameters for each row of the CANN table for the xm...">
<polygon fill="white" stroke="#666666" points="282.5,-1633 160.5,-1633 160.5,-1614 282.5,-1614 282.5,-1633"/>
<text text-anchor="middle" x="221.5" y="-1621" font-family="Helvetica,sans-Serif" font-size="10.00">CANNRowParameters</text>
</a>
</g>
</g>
<!-- Node0&#45;&gt;Node5 -->
<g id="edge13_Node000000_Node000005" class="edge">
<title>Node0&#45;&gt;Node5</title>
<g id="a_edge13_Node000000_Node000005"><a xlink:title=" ">
<path fill="none" stroke="#63b8ff" d="M46.28,-898.36C50.84,-1009.57 75.49,-1552.01 125,-1605.5 134.17,-1615.41 146.93,-1620.88 160.15,-1623.72"/>
<polygon fill="#63b8ff" stroke="#63b8ff" points="49.77,-898.06 45.87,-888.21 42.78,-898.35 49.77,-898.06"/>
</a>
</g>
</g>
<!-- Node6 -->
<g id="Node000006" class="node">
<title>Node6</title>
<g id="a_Node000006"><a xlink:href="class_constitutive_model_parameters.html" target="_top" xlink:title="The ConstitutiveModelParameters class store parameters for various constitutive models.">
<polygon fill="white" stroke="#666666" points="302,-1596 141,-1596 141,-1577 302,-1577 302,-1596"/>
<text text-anchor="middle" x="221.5" y="-1584" font-family="Helvetica,sans-Serif" font-size="10.00">ConstitutiveModelParameters</text>
</a>
</g>
</g>
<!-- Node0&#45;&gt;Node6 -->
<g id="edge14_Node000000_Node000006" class="edge">
<title>Node0&#45;&gt;Node6</title>
<g id="a_edge14_Node000000_Node000006"><a xlink:title=" ">
<path fill="none" stroke="#63b8ff" d="M46.4,-898.35C51.48,-1006.12 77.98,-1517.99 125,-1568.5 129.48,-1573.32 134.82,-1577.08 140.64,-1580.01"/>
<polygon fill="#63b8ff" stroke="#63b8ff" points="49.89,-898.05 45.93,-888.22 42.9,-898.37 49.89,-898.05"/>
</a>
</g>
</g>
<!-- Node7 -->
<g id="Node000007" class="node">
<title>Node7</title>
<g id="a_Node000007"><a xlink:href="class_contact_parameters.html" target="_top" xlink:title="The ContactParameters class stores parameters for the &#39;Contact&#39;&#39; XML element used to specify paramete...">
<polygon fill="white" stroke="#666666" points="276.5,-1559 166.5,-1559 166.5,-1540 276.5,-1540 276.5,-1559"/>
<text text-anchor="middle" x="221.5" y="-1547" font-family="Helvetica,sans-Serif" font-size="10.00">ContactParameters</text>
</a>
</g>
</g>
<!-- Node0&#45;&gt;Node7 -->
<g id="edge15_Node000000_Node000007" class="edge">
<title>Node0&#45;&gt;Node7</title>
<g id="a_edge15_Node000000_Node000007"><a xlink:title=" ">
<path fill="none" stroke="#63b8ff" d="M46.55,-898.58C52.21,-1003.33 80.5,-1484 125,-1531.5 135.61,-1542.83 150.93,-1548.34 166.2,-1550.75"/>
<polygon fill="#63b8ff" stroke="#63b8ff" points="50.04,-898.23 46.01,-888.43 43.05,-898.6 50.04,-898.23"/>
</a>
</g>
</g>
<!-- Node8 -->
<g id="Node000008" class="node">
<title>Node8</title>
<g id="a_Node000008"><a xlink:href="class_couple_gen_b_c_parameters.html" target="_top" xlink:title="Coupling to GenBC.">
<polygon fill="white" stroke="#666666" points="291,-1522 152,-1522 152,-1503 291,-1503 291,-1522"/>
<text text-anchor="middle" x="221.5" y="-1510" font-family="Helvetica,sans-Serif" font-size="10.00">CoupleGenBCParameters</text>
</a>
</g>
</g>
<!-- Node0&#45;&gt;Node8 -->
<g id="edge16_Node000000_Node000008" class="edge">
<title>Node0&#45;&gt;Node8</title>
<g id="a_edge16_Node000000_Node000008"><a xlink:title=" ">
<path fill="none" stroke="#63b8ff" d="M45.07,-898.47C43.44,-994.3 41.44,-1405.95 125,-1494.5 132.3,-1502.23 141.78,-1507.25 151.94,-1510.42"/>
<polygon fill="#63b8ff" stroke="#63b8ff" points="48.57,-898.46 45.26,-888.4 41.57,-898.33 48.57,-898.46"/>
</a>
</g>
</g>
<!-- Node9 -->
<g id="Node000009" class="node">
<title>Node9</title>
<g id="a_Node000009"><a xlink:href="class_coupling_interface_parameters.html" target="_top" xlink:title="svZeroDSolver coupling options under Add_BC (with Time_dependence Coupled).">
<polygon fill="white" stroke="#666666" points="300.5,-1485 142.5,-1485 142.5,-1466 300.5,-1466 300.5,-1485"/>
<text text-anchor="middle" x="221.5" y="-1473" font-family="Helvetica,sans-Serif" font-size="10.00">CouplingInterfaceParameters</text>
</a>
</g>
</g>
<!-- Node0&#45;&gt;Node9 -->
<g id="edge17_Node000000_Node000009" class="edge">
<title>Node0&#45;&gt;Node9</title>
<g id="a_edge17_Node000000_Node000009"><a xlink:title=" ">
<path fill="none" stroke="#63b8ff" d="M45.25,-898.42C44.54,-990.61 46.36,-1374.84 125,-1457.5 129.88,-1462.63 135.74,-1466.57 142.11,-1469.56"/>
<polygon fill="#63b8ff" stroke="#63b8ff" points="48.75,-898.28 45.35,-888.24 41.75,-898.21 48.75,-898.28"/>
</a>
</g>
</g>
<!-- Node10 -->
<g id="Node000010" class="node">
<title>Node10</title>
<g id="a_Node000010"><a xlink:href="class_directional_distribution_parameters.html" target="_top" xlink:title="The DirectionalDistributionParameters class stores directional distribution parameters for active str...">
<polygon fill="white" stroke="#666666" points="312.5,-1448 130.5,-1448 130.5,-1429 312.5,-1429 312.5,-1448"/>
<text text-anchor="middle" x="221.5" y="-1436" font-family="Helvetica,sans-Serif" font-size="10.00">DirectionalDistributionParameters</text>
</a>
</g>
</g>
<!-- Node0&#45;&gt;Node10 -->
<g id="edge18_Node000000_Node000010" class="edge">
<title>Node0&#45;&gt;Node10</title>
<g id="a_edge18_Node000000_Node000010"><a xlink:title=" ">
<path fill="none" stroke="#63b8ff" d="M45.46,-898.25C45.69,-986.5 51.25,-1343.68 125,-1420.5 128.16,-1423.79 131.71,-1426.58 135.54,-1428.95"/>
<polygon fill="#63b8ff" stroke="#63b8ff" points="48.96,-898.04 45.45,-888.04 41.96,-898.04 48.96,-898.04"/>
</a>
</g>
</g>
<!-- Node11 -->
<g id="Node000011" class="node">
<title>Node11</title>
<g id="a_Node000011"><a xlink:href="class_domain_parameters.html" target="_top" xlink:title="The DomainParameters class stores parameters for the XML &#39;Domain&#39; element to specify properties for s...">
<polygon fill="white" stroke="#666666" points="276.5,-1411 166.5,-1411 166.5,-1392 276.5,-1392 276.5,-1411"/>
<text text-anchor="middle" x="221.5" y="-1399" font-family="Helvetica,sans-Serif" font-size="10.00">DomainParameters</text>
</a>
</g>
</g>
<!-- Node0&#45;&gt;Node11 -->
<g id="edge19_Node000000_Node000011" class="edge">
<title>Node0&#45;&gt;Node11</title>
<g id="a_edge19_Node000000_Node000011"><a xlink:title=" ">
<path fill="none" stroke="#63b8ff" d="M45.69,-898.24C46.93,-982.7 56.16,-1312.55 125,-1383.5 135.81,-1394.64 151.18,-1400.1 166.44,-1402.52"/>
<polygon fill="#63b8ff" stroke="#63b8ff" points="49.19,-898.16 45.57,-888.2 42.19,-898.24 49.19,-898.16"/>
</a>
</g>
</g>
<!-- Node12 -->
<g id="Node000012" class="node">
<title>Node12</title>
<g id="a_Node000012"><a xlink:href="class_e_c_g_leads_parameters.html" target="_top" xlink:title=" ">
<polygon fill="white" stroke="#666666" points="282,-1374 161,-1374 161,-1355 282,-1355 282,-1374"/>
<text text-anchor="middle" x="221.5" y="-1362" font-family="Helvetica,sans-Serif" font-size="10.00">ECGLeadsParameters</text>
</a>
</g>
</g>
<!-- Node0&#45;&gt;Node12 -->
<g id="edge20_Node000000_Node000012" class="edge">
<title>Node0&#45;&gt;Node12</title>
<g id="a_edge20_Node000000_Node000012"><a xlink:title=" ">
<path fill="none" stroke="#63b8ff" d="M45.97,-898.57C48.29,-979.61 61.15,-1281.49 125,-1346.5 134.46,-1356.13 147.33,-1361.5 160.56,-1364.33"/>
<polygon fill="#63b8ff" stroke="#63b8ff" points="49.46,-898.17 45.7,-888.27 42.46,-898.36 49.46,-898.17"/>
</a>
</g>
</g>
<!-- Node13 -->
<g id="Node000013" class="node">
<title>Node13</title>
<g id="a_Node000013"><a xlink:href="class_equation_parameters.html" target="_top" xlink:title="The EquationParameters class stores parameters for the &#39;Add_equation&#39; XML element used to specify an ...">
<polygon fill="white" stroke="#666666" points="279,-1337 164,-1337 164,-1318 279,-1318 279,-1337"/>
<text text-anchor="middle" x="221.5" y="-1325" font-family="Helvetica,sans-Serif" font-size="10.00">EquationParameters</text>
</a>
</g>
</g>
<!-- Node0&#45;&gt;Node13 -->
<g id="edge21_Node000000_Node000013" class="edge">
<title>Node0&#45;&gt;Node13</title>
<g id="a_edge21_Node000000_Node000013"><a xlink:title=" ">
<path fill="none" stroke="#63b8ff" d="M46.28,-898.45C49.72,-975.22 66.01,-1250.28 125,-1309.5 135.24,-1319.78 149.38,-1325.18 163.64,-1327.83"/>
<polygon fill="#63b8ff" stroke="#63b8ff" points="49.77,-898.09 45.85,-888.25 42.78,-898.39 49.77,-898.09"/>
</a>
</g>
</g>
<!-- Node14 -->
<g id="Node000014" class="node">
<title>Node14</title>
<g id="a_Node000014"><a xlink:href="class_face_parameters.html" target="_top" xlink:title="The FaceParameters class is used to store parameters for the &#39;Add_face&#39; XML element.">
<polygon fill="white" stroke="#666666" points="268.5,-1300 174.5,-1300 174.5,-1281 268.5,-1281 268.5,-1300"/>
<text text-anchor="middle" x="221.5" y="-1288" font-family="Helvetica,sans-Serif" font-size="10.00">FaceParameters</text>
</a>
</g>
</g>
<!-- Node0&#45;&gt;Node14 -->
<g id="edge22_Node000000_Node000014" class="edge">
<title>Node0&#45;&gt;Node14</title>
<g id="a_edge22_Node000000_Node000014"><a xlink:title=" ">
<path fill="none" stroke="#63b8ff" d="M46.69,-898.49C51.42,-970.9 71.29,-1217.97 125,-1271.5 137.81,-1284.27 156.6,-1289.68 174.12,-1291.66"/>
<polygon fill="#63b8ff" stroke="#63b8ff" points="50.16,-897.85 46.04,-888.09 43.17,-898.29 50.16,-897.85"/>
</a>
</g>
</g>
<!-- Node15 -->
<g id="Node000015" class="node">
<title>Node15</title>
<g id="a_Node000015"><a xlink:href="class_fiber_reinforcement_stress_parameters.html" target="_top" xlink:title="The FiberReinforcementStressParameters class stores fiber reinforcement stress parameters for the &#39;Fi...">
<polygon fill="white" stroke="#666666" points="293,-1262.5 150,-1262.5 150,-1232.5 293,-1232.5 293,-1262.5"/>
<text text-anchor="start" x="158" y="-1250.5" font-family="Helvetica,sans-Serif" font-size="10.00">FiberReinforcementStress</text>
<text text-anchor="middle" x="221.5" y="-1239.5" font-family="Helvetica,sans-Serif" font-size="10.00">Parameters</text>
</a>
</g>
</g>
<!-- Node0&#45;&gt;Node15 -->
<g id="edge23_Node000000_Node000015" class="edge">
<title>Node0&#45;&gt;Node15</title>
<g id="a_edge23_Node000000_Node000015"><a xlink:title=" ">
<path fill="none" stroke="#63b8ff" d="M47.4,-898.5C54.09,-964.88 78.72,-1176.3 125,-1223.5 131.94,-1230.58 140.64,-1235.68 149.94,-1239.34"/>
<polygon fill="#63b8ff" stroke="#63b8ff" points="50.84,-897.79 46.38,-888.18 43.88,-898.48 50.84,-897.79"/>
</a>
</g>
</g>
<!-- Node16 -->
<g id="Node000016" class="node">
<title>Node16</title>
<g id="a_Node000016"><a xlink:href="class_fluid_viscosity_carreau_yasuda_parameters.html" target="_top" xlink:title=" ">
<polygon fill="white" stroke="#666666" points="300,-1214.5 143,-1214.5 143,-1184.5 300,-1184.5 300,-1214.5"/>
<text text-anchor="start" x="151" y="-1202.5" font-family="Helvetica,sans-Serif" font-size="10.00">FluidViscosityCarreauYasuda</text>
<text text-anchor="middle" x="221.5" y="-1191.5" font-family="Helvetica,sans-Serif" font-size="10.00">Parameters</text>
</a>
</g>
</g>
<!-- Node0&#45;&gt;Node16 -->
<g id="edge24_Node000000_Node000016" class="edge">
<title>Node0&#45;&gt;Node16</title>
<g id="a_edge24_Node000000_Node000016"><a xlink:title=" ">
<path fill="none" stroke="#63b8ff" d="M48.13,-898.02C56.54,-957.64 84.63,-1135.74 125,-1175.5 130.12,-1180.54 136.12,-1184.57 142.59,-1187.79"/>
<polygon fill="#63b8ff" stroke="#63b8ff" points="51.58,-897.46 46.75,-888.04 44.65,-898.42 51.58,-897.46"/>
</a>
</g>
</g>
<!-- Node17 -->
<g id="Node000017" class="node">
<title>Node17</title>
<g id="a_Node000017"><a xlink:href="class_fluid_viscosity_cassons_parameters.html" target="_top" xlink:title=" ">
<polygon fill="white" stroke="#666666" points="312,-1166 131,-1166 131,-1147 312,-1147 312,-1166"/>
<text text-anchor="middle" x="221.5" y="-1154" font-family="Helvetica,sans-Serif" font-size="10.00">FluidViscosityCassonsParameters</text>
</a>
</g>
</g>
<!-- Node0&#45;&gt;Node17 -->
<g id="edge25_Node000000_Node000017" class="edge">
<title>Node0&#45;&gt;Node17</title>
<g id="a_edge25_Node000000_Node000017"><a xlink:title=" ">
<path fill="none" stroke="#63b8ff" d="M45.13,-898.28C45.36,-947.14 53.21,-1074.23 125,-1138.5 128.65,-1141.76 132.69,-1144.52 137,-1146.84"/>
<polygon fill="#63b8ff" stroke="#63b8ff" points="48.63,-898.13 45.19,-888.11 41.63,-898.09 48.63,-898.13"/>
</a>
</g>
</g>
<!-- Node18 -->
<g id="Node000018" class="node">
<title>Node18</title>
<g id="a_Node000018"><a xlink:href="class_fluid_viscosity_newtonian_parameters.html" target="_top" xlink:title=" ">
<polygon fill="white" stroke="#666666" points="318,-1129 125,-1129 125,-1110 318,-1110 318,-1129"/>
<text text-anchor="middle" x="221.5" y="-1117" font-family="Helvetica,sans-Serif" font-size="10.00">FluidViscosityNewtonianParameters</text>
</a>
</g>
</g>
<!-- Node0&#45;&gt;Node18 -->
<g id="edge26_Node000000_Node000018" class="edge">
<title>Node0&#45;&gt;Node18</title>
<g id="a_edge26_Node000000_Node000018"><a xlink:title=" ">
<path fill="none" stroke="#63b8ff" d="M46.29,-898.42C49.19,-942.42 62.63,-1048.18 125,-1101.5 128.85,-1104.79 133.1,-1107.55 137.62,-1109.87"/>
<polygon fill="#63b8ff" stroke="#63b8ff" points="49.79,-898.21 45.75,-888.41 42.8,-898.59 49.79,-898.21"/>
</a>
</g>
</g>
<!-- Node19 -->
<g id="Node000019" class="node">
<title>Node19</title>
<g id="a_Node000019"><a xlink:href="class_fluid_viscosity_parameters.html" target="_top" xlink:title=" ">
<polygon fill="white" stroke="#666666" points="291.5,-1092 151.5,-1092 151.5,-1073 291.5,-1073 291.5,-1092"/>
<text text-anchor="middle" x="221.5" y="-1080" font-family="Helvetica,sans-Serif" font-size="10.00">FluidViscosityParameters</text>
</a>
</g>
</g>
<!-- Node0&#45;&gt;Node19 -->
<g id="edge27_Node000000_Node000019" class="edge">
<title>Node0&#45;&gt;Node19</title>
<g id="a_edge27_Node000000_Node000019"><a xlink:title=" ">
<path fill="none" stroke="#63b8ff" d="M47.89,-898.48C53.63,-937.08 71.9,-1021.86 125,-1064.5 132.63,-1070.63 141.7,-1074.9 151.18,-1077.85"/>
<polygon fill="#63b8ff" stroke="#63b8ff" points="51.29,-897.52 46.49,-888.08 44.35,-898.46 51.29,-897.52"/>
</a>
</g>
</g>
<!-- Node20 -->
<g id="Node000020" class="node">
<title>Node20</title>
<g id="a_Node000020"><a xlink:href="class_general_simulation_parameters.html" target="_top" xlink:title="The GeneralSimulationParameters class stores paramaters for the &#39;GeneralSimulationParameters&#39; XML ele...">
<polygon fill="white" stroke="#666666" points="303,-1055 140,-1055 140,-1036 303,-1036 303,-1055"/>
<text text-anchor="middle" x="221.5" y="-1043" font-family="Helvetica,sans-Serif" font-size="10.00">GeneralSimulationParameters</text>
</a>
</g>
</g>
<!-- Node0&#45;&gt;Node20 -->
<g id="edge28_Node000000_Node000020" class="edge">
<title>Node0&#45;&gt;Node20</title>
<g id="a_edge28_Node000000_Node000020"><a xlink:title=" ">
<path fill="none" stroke="#63b8ff" d="M50.09,-898.09C58.77,-930.53 80.82,-995.05 125,-1027.5 129.49,-1030.8 134.4,-1033.54 139.57,-1035.82"/>
<polygon fill="#63b8ff" stroke="#63b8ff" points="53.4,-896.9 47.56,-888.05 46.61,-898.61 53.4,-896.9"/>
</a>
</g>
</g>
<!-- Node21 -->
<g id="Node000021" class="node">
<title>Node21</title>
<g id="a_Node000021"><a xlink:href="class_guccione_parameters.html" target="_top" xlink:title=" ">
<polygon fill="white" stroke="#666666" points="280,-1018 163,-1018 163,-999 280,-999 280,-1018"/>
<text text-anchor="middle" x="221.5" y="-1006" font-family="Helvetica,sans-Serif" font-size="10.00">GuccioneParameters</text>
</a>
</g>
</g>
<!-- Node0&#45;&gt;Node21 -->
<g id="edge29_Node000000_Node000021" class="edge">
<title>Node0&#45;&gt;Node21</title>
<g id="a_edge29_Node000000_Node000021"><a xlink:title=" ">
<path fill="none" stroke="#63b8ff" d="M53.46,-897.56C65.16,-923.08 89.53,-967.77 125,-990.5 136.22,-997.69 149.61,-1002.16 162.76,-1004.9"/>
<polygon fill="#63b8ff" stroke="#63b8ff" points="56.57,-895.95 49.34,-888.21 50.17,-898.77 56.57,-895.95"/>
</a>
</g>
</g>
<!-- Node22 -->
<g id="Node000022" class="node">
<title>Node22</title>
<g id="a_Node000022"><a xlink:href="class_holzapfel_gasser_ogden_parameters.html" target="_top" xlink:title=" ">
<polygon fill="white" stroke="#666666" points="313.5,-981 129.5,-981 129.5,-962 313.5,-962 313.5,-981"/>
<text text-anchor="middle" x="221.5" y="-969" font-family="Helvetica,sans-Serif" font-size="10.00">HolzapfelGasserOgdenParameters</text>
</a>
</g>
</g>
<!-- Node0&#45;&gt;Node22 -->
<g id="edge30_Node000000_Node000022" class="edge">
<title>Node0&#45;&gt;Node22</title>
<g id="a_edge30_Node000000_Node000022"><a xlink:title=" ">
<path fill="none" stroke="#63b8ff" d="M59.22,-896.38C73.63,-913.83 97.93,-939.71 125,-953.5 131.76,-956.95 139.1,-959.74 146.6,-962"/>
<polygon fill="#63b8ff" stroke="#63b8ff" points="61.6,-893.76 52.62,-888.14 56.13,-898.13 61.6,-893.76"/>
</a>
</g>
</g>
<!-- Node23 -->
<g id="Node000023" class="node">
<title>Node23</title>
<g id="a_Node000023"><a xlink:href="class_holzapfel_parameters.html" target="_top" xlink:title=" ">
<polygon fill="white" stroke="#666666" points="281,-944 162,-944 162,-925 281,-925 281,-944"/>
<text text-anchor="middle" x="221.5" y="-932" font-family="Helvetica,sans-Serif" font-size="10.00">HolzapfelParameters</text>
</a>
</g>
</g>
<!-- Node0&#45;&gt;Node23 -->
<g id="edge31_Node000000_Node000023" class="edge">
<title>Node0&#45;&gt;Node23</title>
<g id="a_edge31_Node000000_Node000023"><a xlink:title=" ">
<path fill="none" stroke="#63b8ff" d="M71.16,-892.87C86.4,-900.86 106.34,-910.4 125,-916.5 136.71,-920.33 149.5,-923.44 161.81,-925.93"/>
<polygon fill="#63b8ff" stroke="#63b8ff" points="72.8,-889.78 62.34,-888.14 69.5,-895.94 72.8,-889.78"/>
</a>
</g>
</g>
<!-- Node24 -->
<g id="Node000024" class="node">
<title>Node24</title>
<g id="a_Node000024"><a xlink:href="class_ionic_initial_state_parameters.html" target="_top" xlink:title="Generic ionic model initial conditions parameters.">
<polygon fill="white" stroke="#666666" points="296,-907 147,-907 147,-888 296,-888 296,-907"/>
<text text-anchor="middle" x="221.5" y="-895" font-family="Helvetica,sans-Serif" font-size="10.00">IonicInitialStateParameters</text>
</a>
</g>
</g>
<!-- Node0&#45;&gt;Node24 -->
<g id="edge32_Node000000_Node000024" class="edge">
<title>Node0&#45;&gt;Node24</title>
<g id="a_edge32_Node000000_Node000024"><a xlink:title=" ">
<path fill="none" stroke="#63b8ff" d="M99.31,-884.34C114.29,-885.97 130.82,-887.76 146.74,-889.49"/>
<polygon fill="#63b8ff" stroke="#63b8ff" points="99.53,-880.85 89.21,-883.25 98.77,-887.8 99.53,-880.85"/>
</a>
</g>
</g>
<!-- Node25 -->
<g id="Node000025" class="node">
<title>Node25</title>
<g id="a_Node000025"><a xlink:href="class_ionic_model_parameters.html" target="_top" xlink:title="Initial conditions parameters for a generic ionic model.">
<polygon fill="white" stroke="#666666" points="284,-870 159,-870 159,-851 284,-851 284,-870"/>
<text text-anchor="middle" x="221.5" y="-858" font-family="Helvetica,sans-Serif" font-size="10.00">IonicModelParameters</text>
</a>
</g>
</g>
<!-- Node0&#45;&gt;Node25 -->
<g id="edge33_Node000000_Node000025" class="edge">
<title>Node0&#45;&gt;Node25</title>
<g id="a_edge33_Node000000_Node000025"><a xlink:title=" ">
<path fill="none" stroke="#63b8ff" d="M99.39,-872.96C118.21,-871.02 139.48,-868.83 158.88,-866.84"/>
<polygon fill="#63b8ff" stroke="#63b8ff" points="98.8,-869.5 89.21,-874 99.51,-876.46 98.8,-869.5"/>
</a>
</g>
</g>
<!-- Node30 -->
<g id="Node000030" class="node">
<title>Node30</title>
<g id="a_Node000030"><a xlink:href="class_lee_sacks_parameters.html" target="_top" xlink:title=" ">
<polygon fill="white" stroke="#666666" points="280.5,-833 162.5,-833 162.5,-814 280.5,-814 280.5,-833"/>
<text text-anchor="middle" x="221.5" y="-821" font-family="Helvetica,sans-Serif" font-size="10.00">LeeSacksParameters</text>
</a>
</g>
</g>
<!-- Node0&#45;&gt;Node30 -->
<g id="edge38_Node000000_Node000030" class="edge">
<title>Node0&#45;&gt;Node30</title>
<g id="a_edge38_Node000000_Node000030"><a xlink:title=" ">
<path fill="none" stroke="#63b8ff" d="M72.6,-864.36C87.69,-856.97 107.01,-848.28 125,-842.5 136.91,-838.67 149.91,-835.47 162.39,-832.85"/>
<polygon fill="#63b8ff" stroke="#63b8ff" points="70.72,-861.39 63.35,-868.99 73.85,-867.65 70.72,-861.39"/>
</a>
</g>
</g>
<!-- Node31 -->
<g id="Node000031" class="node">
<title>Node31</title>
<g id="a_Node000031"><a xlink:href="class_linear_algebra_parameters.html" target="_top" xlink:title="The LinearAlgebraParameters class stores parameters for the &#39;Linear_algebra&#39; XML element.">
<polygon fill="white" stroke="#666666" points="291.5,-796 151.5,-796 151.5,-777 291.5,-777 291.5,-796"/>
<text text-anchor="middle" x="221.5" y="-784" font-family="Helvetica,sans-Serif" font-size="10.00">LinearAlgebraParameters</text>
</a>
</g>
</g>
<!-- Node0&#45;&gt;Node31 -->
<g id="edge39_Node000000_Node000031" class="edge">
<title>Node0&#45;&gt;Node31</title>
<g id="a_edge39_Node000000_Node000031"><a xlink:title=" ">
<path fill="none" stroke="#63b8ff" d="M59.27,-860.86C73.72,-843.64 98.06,-818.12 125,-804.5 133.21,-800.35 142.25,-797.16 151.4,-794.69"/>
<polygon fill="#63b8ff" stroke="#63b8ff" points="56.25,-859.03 52.65,-868.99 61.68,-863.44 56.25,-859.03"/>
</a>
</g>
</g>
<!-- Node32 -->
<g id="Node000032" class="node">
<title>Node32</title>
<g id="a_Node000032"><a xlink:href="class_linear_solver_parameters.html" target="_top" xlink:title="The LinearSolverParameters class stores parameters for the &#39;LS&#39; XML element.">
<polygon fill="white" stroke="#666666" points="288,-759 155,-759 155,-740 288,-740 288,-759"/>
<text text-anchor="middle" x="221.5" y="-747" font-family="Helvetica,sans-Serif" font-size="10.00">LinearSolverParameters</text>
</a>
</g>
</g>
<!-- Node0&#45;&gt;Node32 -->
<g id="edge40_Node000000_Node000032" class="edge">
<title>Node0&#45;&gt;Node32</title>
<g id="a_edge40_Node000000_Node000032"><a xlink:title=" ">
<path fill="none" stroke="#63b8ff" d="M53.5,-859.61C65.26,-834.32 89.7,-790.02 125,-767.5 133.96,-761.78 144.3,-757.79 154.78,-755.02"/>
<polygon fill="#63b8ff" stroke="#63b8ff" points="50.25,-858.32 49.37,-868.88 56.64,-861.17 50.25,-858.32"/>
</a>
</g>
</g>
<!-- Node33 -->
<g id="Node000033" class="node">
<title>Node33</title>
<g id="a_Node000033"><a xlink:href="class_mesh_parameters.html" target="_top" xlink:title="The MeshParameters class is used to store paramaters for the &#39;Add_mesh&#39; XML element.">
<polygon fill="white" stroke="#666666" points="270.5,-722 172.5,-722 172.5,-703 270.5,-703 270.5,-722"/>
<text text-anchor="middle" x="221.5" y="-710" font-family="Helvetica,sans-Serif" font-size="10.00">MeshParameters</text>
</a>
</g>
</g>
<!-- Node0&#45;&gt;Node33 -->
<g id="edge41_Node000000_Node000033" class="edge">
<title>Node0&#45;&gt;Node33</title>
<g id="a_edge41_Node000000_Node000033"><a xlink:title=" ">
<path fill="none" stroke="#63b8ff" d="M50.26,-858.58C59.08,-826.2 81.22,-762.56 125,-730.5 138.61,-720.53 156.16,-715.6 172.5,-713.3"/>
<polygon fill="#63b8ff" stroke="#63b8ff" points="46.77,-858.07 47.67,-868.62 53.55,-859.81 46.77,-858.07"/>
</a>
</g>
</g>
<!-- Node34 -->
<g id="Node000034" class="node">
<title>Node34</title>
<g id="a_Node000034"><a xlink:href="class_mooney_rivlin_parameters.html" target="_top" xlink:title=" ">
<polygon fill="white" stroke="#666666" points="291,-685 152,-685 152,-666 291,-666 291,-685"/>
<text text-anchor="middle" x="221.5" y="-673" font-family="Helvetica,sans-Serif" font-size="10.00">MooneyRivlinParameters</text>
</a>
</g>
</g>
<!-- Node0&#45;&gt;Node34 -->
<g id="edge42_Node000000_Node000034" class="edge">
<title>Node0&#45;&gt;Node34</title>
<g id="a_edge42_Node000000_Node000034"><a xlink:title=" ">
<path fill="none" stroke="#63b8ff" d="M47.92,-858.63C53.72,-820.23 72.1,-735.9 125,-693.5 132.77,-687.27 142.03,-682.96 151.68,-680.01"/>
<polygon fill="#63b8ff" stroke="#63b8ff" points="44.4,-858.59 46.5,-868.97 51.33,-859.54 44.4,-858.59"/>
</a>
</g>
</g>
<!-- Node35 -->
<g id="Node000035" class="node">
<title>Node35</title>
<g id="a_Node000035"><a xlink:href="class_neo_hookean_parameters.html" target="_top" xlink:title=" ">
<polygon fill="white" stroke="#666666" points="288.5,-648 154.5,-648 154.5,-629 288.5,-629 288.5,-648"/>
<text text-anchor="middle" x="221.5" y="-636" font-family="Helvetica,sans-Serif" font-size="10.00">NeoHookeanParameters</text>
</a>
</g>
</g>
<!-- Node0&#45;&gt;Node35 -->
<g id="edge43_Node000000_Node000035" class="edge">
<title>Node0&#45;&gt;Node35</title>
<g id="a_edge43_Node000000_Node000035"><a xlink:title=" ">
<path fill="none" stroke="#63b8ff" d="M46.34,-858.38C49.34,-814.41 62.98,-709.45 125,-656.5 133.34,-649.38 143.6,-644.71 154.27,-641.72"/>
<polygon fill="#63b8ff" stroke="#63b8ff" points="42.84,-858.45 45.77,-868.63 49.82,-858.84 42.84,-858.45"/>
</a>
</g>
</g>
<!-- Node36 -->
<g id="Node000036" class="node">
<title>Node36</title>
<g id="a_Node000036"><a xlink:href="class_output_parameters.html" target="_top" xlink:title="The OutputParameters class stores parameters for the Output XML element under Add_equation.">
<polygon fill="white" stroke="#666666" points="274,-611 169,-611 169,-592 274,-592 274,-611"/>
<text text-anchor="middle" x="221.5" y="-599" font-family="Helvetica,sans-Serif" font-size="10.00">OutputParameters</text>
</a>
</g>
</g>
<!-- Node0&#45;&gt;Node36 -->
<g id="edge44_Node000000_Node000036" class="edge">
<title>Node0&#45;&gt;Node36</title>
<g id="a_edge44_Node000000_Node000036"><a xlink:title=" ">
<path fill="none" stroke="#63b8ff" d="M45.15,-858.8C45.45,-810.12 53.43,-683.5 125,-619.5 136.95,-608.82 153.18,-603.58 168.87,-601.23"/>
<polygon fill="#63b8ff" stroke="#63b8ff" points="41.65,-858.94 45.2,-868.93 48.65,-858.91 41.65,-858.94"/>
</a>
</g>
</g>
<!-- Node37 -->
<g id="Node000037" class="node">
<title>Node37</title>
<g id="a_Node000037"><a xlink:href="class_precomputed_solution_parameters.html" target="_top" xlink:title="The PrecomputedSolutionParameters class stores parameters for the &#39;Precomputed_solution&#39; XML element ...">
<polygon fill="white" stroke="#666666" points="309.5,-574 133.5,-574 133.5,-555 309.5,-555 309.5,-574"/>
<text text-anchor="middle" x="221.5" y="-562" font-family="Helvetica,sans-Serif" font-size="10.00">PrecomputedSolutionParameters</text>
</a>
</g>
</g>
<!-- Node0&#45;&gt;Node37 -->
<g id="edge45_Node000000_Node000037" class="edge">
<title>Node0&#45;&gt;Node37</title>
<g id="a_edge45_Node000000_Node000037"><a xlink:title=" ">
<path fill="none" stroke="#63b8ff" d="M48.04,-858.94C56.18,-799.2 83.57,-620.89 125,-582.5 128.59,-579.17 132.59,-576.37 136.86,-574.01"/>
<polygon fill="#63b8ff" stroke="#63b8ff" points="44.55,-858.57 46.7,-868.94 51.49,-859.49 44.55,-858.57"/>
</a>
</g>
</g>
<!-- Node38 -->
<g id="Node000038" class="node">
<title>Node38</title>
<g id="a_Node000038"><a xlink:href="class_projection_parameters.html" target="_top" xlink:title="The ProjectionParameters class stores parameters for the &#39;Add_projection&#39; XML element used for fluid&#45;...">
<polygon fill="white" stroke="#666666" points="282,-537 161,-537 161,-518 282,-518 282,-537"/>
<text text-anchor="middle" x="221.5" y="-525" font-family="Helvetica,sans-Serif" font-size="10.00">ProjectionParameters</text>
</a>
</g>
</g>
<!-- Node0&#45;&gt;Node38 -->
<g id="edge46_Node000000_Node000038" class="edge">
<title>Node0&#45;&gt;Node38</title>
<g id="a_edge46_Node000000_Node000038"><a xlink:title=" ">
<path fill="none" stroke="#63b8ff" d="M47.44,-858.66C54.2,-793.76 78.83,-589.5 125,-545.5 134.65,-536.3 147.44,-531.07 160.51,-528.23"/>
<polygon fill="#63b8ff" stroke="#63b8ff" points="43.94,-858.47 46.42,-868.77 50.91,-859.18 43.94,-858.47"/>
</a>
</g>
</g>
<!-- Node39 -->
<g id="Node000039" class="node">
<title>Node39</title>
<g id="a_Node000039"><a xlink:href="class_r_i_s_projection_parameters.html" target="_top" xlink:title="The RISProjectionParameters class stores parameters for the &#39;Add_RIS_projection&#39; XML element used for...">
<polygon fill="white" stroke="#666666" points="290,-500 153,-500 153,-481 290,-481 290,-500"/>
<text text-anchor="middle" x="221.5" y="-488" font-family="Helvetica,sans-Serif" font-size="10.00">RISProjectionParameters</text>
</a>
</g>
</g>
<!-- Node0&#45;&gt;Node39 -->
<g id="edge47_Node000000_Node000039" class="edge">
<title>Node0&#45;&gt;Node39</title>
<g id="a_edge47_Node000000_Node000039"><a xlink:title=" ">
<path fill="none" stroke="#63b8ff" d="M46.92,-858.75C52.34,-789.35 73.98,-558.25 125,-508.5 132.73,-500.96 142.57,-496.07 152.97,-492.97"/>
<polygon fill="#63b8ff" stroke="#63b8ff" points="43.43,-858.54 46.17,-868.77 50.41,-859.06 43.43,-858.54"/>
</a>
</g>
</g>
<!-- Node40 -->
<g id="Node000040" class="node">
<title>Node40</title>
<g id="a_Node000040"><a xlink:href="class_remesher_parameters.html" target="_top" xlink:title="The RemesherParameters class stores parameters for the &#39;Remesher&#39; XML element used for remeshing.">
<polygon fill="white" stroke="#666666" points="282.5,-463 160.5,-463 160.5,-444 282.5,-444 282.5,-463"/>
<text text-anchor="middle" x="221.5" y="-451" font-family="Helvetica,sans-Serif" font-size="10.00">RemesherParameters</text>
</a>
</g>
</g>
<!-- Node0&#45;&gt;Node40 -->
<g id="edge48_Node000000_Node000040" class="edge">
<title>Node0&#45;&gt;Node40</title>
<g id="a_edge48_Node000000_Node000040"><a xlink:title=" ">
<path fill="none" stroke="#63b8ff" d="M46.51,-858.73C50.69,-784.93 69.12,-527.01 125,-471.5 134.46,-462.11 147.17,-456.8 160.23,-453.94"/>
<polygon fill="#63b8ff" stroke="#63b8ff" points="43,-858.76 45.96,-868.93 49.99,-859.13 43,-858.76"/>
</a>
</g>
</g>
<!-- Node41 -->
<g id="Node000041" class="node">
<title>Node41</title>
<g id="a_Node000041"><a xlink:href="class_solid_viscosity_newtonian_parameters.html" target="_top" xlink:title=" ">
<polygon fill="white" stroke="#666666" points="318,-426 125,-426 125,-407 318,-407 318,-426"/>
<text text-anchor="middle" x="221.5" y="-414" font-family="Helvetica,sans-Serif" font-size="10.00">SolidViscosityNewtonianParameters</text>
</a>
</g>
</g>
<!-- Node0&#45;&gt;Node41 -->
<g id="edge49_Node000000_Node000041" class="edge">
<title>Node0&#45;&gt;Node41</title>
<g id="a_edge49_Node000000_Node000041"><a xlink:title=" ">
<path fill="none" stroke="#63b8ff" d="M46.17,-858.47C49.21,-780.12 64.31,-495.74 125,-434.5 128.21,-431.26 131.8,-428.51 135.66,-426.17"/>
<polygon fill="#63b8ff" stroke="#63b8ff" points="42.66,-858.73 45.79,-868.85 49.65,-858.98 42.66,-858.73"/>
</a>
</g>
</g>
<!-- Node42 -->
<g id="Node000042" class="node">
<title>Node42</title>
<g id="a_Node000042"><a xlink:href="class_solid_viscosity_parameters.html" target="_top" xlink:title=" ">
<polygon fill="white" stroke="#666666" points="291.5,-389 151.5,-389 151.5,-370 291.5,-370 291.5,-389"/>
<text text-anchor="middle" x="221.5" y="-377" font-family="Helvetica,sans-Serif" font-size="10.00">SolidViscosityParameters</text>
</a>
</g>
</g>
<!-- Node0&#45;&gt;Node42 -->
<g id="edge50_Node000000_Node000042" class="edge">
<title>Node0&#45;&gt;Node42</title>
<g id="a_edge50_Node000000_Node000042"><a xlink:title=" ">
<path fill="none" stroke="#63b8ff" d="M45.87,-858.41C47.81,-775.94 59.44,-464.56 125,-397.5 132.2,-390.14 141.38,-385.27 151.21,-382.11"/>
<polygon fill="#63b8ff" stroke="#63b8ff" points="42.36,-858.79 45.65,-868.86 49.36,-858.94 42.36,-858.79"/>
</a>
</g>
</g>
<!-- Node43 -->
<g id="Node000043" class="node">
<title>Node43</title>
<g id="a_Node000043"><a xlink:href="class_solid_viscosity_potential_parameters.html" target="_top" xlink:title=" ">
<polygon fill="white" stroke="#666666" points="313.5,-352 129.5,-352 129.5,-333 313.5,-333 313.5,-352"/>
<text text-anchor="middle" x="221.5" y="-340" font-family="Helvetica,sans-Serif" font-size="10.00">SolidViscosityPotentialParameters</text>
</a>
</g>
</g>
<!-- Node0&#45;&gt;Node43 -->
<g id="edge51_Node000000_Node000043" class="edge">
<title>Node0&#45;&gt;Node43</title>
<g id="a_edge51_Node000000_Node000043"><a xlink:title=" ">
<path fill="none" stroke="#63b8ff" d="M45.61,-858.81C46.48,-773.09 54.42,-433.52 125,-360.5 128.17,-357.22 131.73,-354.44 135.56,-352.08"/>
<polygon fill="#63b8ff" stroke="#63b8ff" points="42.1,-858.94 45.52,-868.97 49.1,-859 42.1,-858.94"/>
</a>
</g>
</g>
<!-- Node44 -->
<g id="Node000044" class="node">
<title>Node44</title>
<g id="a_Node000044"><a xlink:href="class_st_venant_kirchhoff_parameters.html" target="_top" xlink:title=" ">
<polygon fill="white" stroke="#666666" points="301,-315 142,-315 142,-296 301,-296 301,-315"/>
<text text-anchor="middle" x="221.5" y="-303" font-family="Helvetica,sans-Serif" font-size="10.00">StVenantKirchhoffParameters</text>
</a>
</g>
</g>
<!-- Node0&#45;&gt;Node44 -->
<g id="edge52_Node000000_Node000044" class="edge">
<title>Node0&#45;&gt;Node44</title>
<g id="a_edge52_Node000000_Node000044"><a xlink:title=" ">
<path fill="none" stroke="#63b8ff" d="M45.38,-858.55C45.28,-768.68 49.57,-402.33 125,-323.5 129.78,-318.5 135.48,-314.64 141.68,-311.69"/>
<polygon fill="#63b8ff" stroke="#63b8ff" points="41.88,-858.74 45.42,-868.73 48.88,-858.72 41.88,-858.74"/>
</a>
</g>
</g>
<!-- Node45 -->
<g id="Node000045" class="node">
<title>Node45</title>
<g id="a_Node000045"><a xlink:href="class_stimulus_box_parameters.html" target="_top" xlink:title="Stores &lt;Box&gt; parameters for CEP stimulus spatial bounds.">
<polygon fill="white" stroke="#666666" points="288.5,-278 154.5,-278 154.5,-259 288.5,-259 288.5,-278"/>
<text text-anchor="middle" x="221.5" y="-266" font-family="Helvetica,sans-Serif" font-size="10.00">StimulusBoxParameters</text>
</a>
</g>
</g>
<!-- Node0&#45;&gt;Node45 -->
<g id="edge53_Node000000_Node000045" class="edge">
<title>Node0&#45;&gt;Node45</title>
<g id="a_edge53_Node000000_Node000045"><a xlink:title=" ">
<path fill="none" stroke="#63b8ff" d="M45.19,-858.73C44.14,-765.57 44.58,-371.28 125,-286.5 132.9,-278.18 143.33,-273 154.41,-269.9"/>
<polygon fill="#63b8ff" stroke="#63b8ff" points="41.69,-859.03 45.32,-868.99 48.69,-858.94 41.69,-859.03"/>
</a>
</g>
</g>
<!-- Node46 -->
<g id="Node000046" class="node">
<title>Node46</title>
<g id="a_Node000046"><a xlink:href="class_stimulus_parameters.html" target="_top" xlink:title="The StimulusParameters class stores parameters for &#39;Stimulus&#39; XML element used to parameters for pace...">
<polygon fill="white" stroke="#666666" points="279,-241 164,-241 164,-222 279,-222 279,-241"/>
<text text-anchor="middle" x="221.5" y="-229" font-family="Helvetica,sans-Serif" font-size="10.00">StimulusParameters</text>
</a>
</g>
</g>
<!-- Node0&#45;&gt;Node46 -->
<g id="edge54_Node000000_Node000046" class="edge">
<title>Node0&#45;&gt;Node46</title>
<g id="a_edge54_Node000000_Node000046"><a xlink:title=" ">
<path fill="none" stroke="#63b8ff" d="M46.62,-858.84C52.6,-757.3 82.05,-295.13 125,-249.5 135.06,-238.81 149.31,-233.31 163.75,-230.7"/>
<polygon fill="#63b8ff" stroke="#63b8ff" points="43.12,-858.75 46.04,-868.93 50.11,-859.15 43.12,-858.75"/>
</a>
</g>
</g>
<!-- Node47 -->
<g id="Node000047" class="node">
<title>Node47</title>
<g id="a_Node000047"><a xlink:href="class_stimulus_sphere_parameters.html" target="_top" xlink:title="Stores &lt;Sphere&gt; parameters for CEP stimulus spatial bounds.">
<polygon fill="white" stroke="#666666" points="296,-204 147,-204 147,-185 296,-185 296,-204"/>
<text text-anchor="middle" x="221.5" y="-192" font-family="Helvetica,sans-Serif" font-size="10.00">StimulusSphereParameters</text>
</a>
</g>
</g>
<!-- Node0&#45;&gt;Node47 -->
<g id="edge55_Node000000_Node000047" class="edge">
<title>Node0&#45;&gt;Node47</title>
<g id="a_edge55_Node000000_Node000047"><a xlink:title=" ">
<path fill="none" stroke="#63b8ff" d="M46.49,-858.69C51.92,-753.27 79.59,-261.08 125,-212.5 130.99,-206.09 138.49,-201.54 146.63,-198.36"/>
<polygon fill="#63b8ff" stroke="#63b8ff" points="42.98,-858.71 45.97,-868.87 49.97,-859.06 42.98,-858.71"/>
</a>
</g>
</g>
<!-- Node48 -->
<g id="Node000048" class="node">
<title>Node48</title>
<g id="a_Node000048"><a xlink:href="class_u_r_i_s_face_parameters.html" target="_top" xlink:title="The URISFaceParameters class is used to store parameters for the &#39;Add_URIS_face&#39; XML element.">
<polygon fill="white" stroke="#666666" points="280,-167 163,-167 163,-148 280,-148 280,-167"/>
<text text-anchor="middle" x="221.5" y="-155" font-family="Helvetica,sans-Serif" font-size="10.00">URISFaceParameters</text>
</a>
</g>
</g>
<!-- Node0&#45;&gt;Node48 -->
<g id="edge56_Node000000_Node000048" class="edge">
<title>Node0&#45;&gt;Node48</title>
<g id="a_edge56_Node000000_Node000048"><a xlink:title=" ">
<path fill="none" stroke="#63b8ff" d="M46.36,-858.62C51.26,-749.58 77.11,-227.05 125,-175.5 134.76,-164.99 148.57,-159.48 162.66,-156.8"/>
<polygon fill="#63b8ff" stroke="#63b8ff" points="42.85,-858.71 45.91,-868.85 49.85,-859.02 42.85,-858.71"/>
</a>
</g>
</g>
<!-- Node49 -->
<g id="Node000049" class="node">
<title>Node49</title>
<g id="a_Node000049"><a xlink:href="class_u_r_i_s_mesh_parameters.html" target="_top" xlink:title="The URISMeshParameters class is used to store paramaters for the &#39;Add_URIS_mesh&#39; XML element.">
<polygon fill="white" stroke="#666666" points="282.5,-130 160.5,-130 160.5,-111 282.5,-111 282.5,-130"/>
<text text-anchor="middle" x="221.5" y="-118" font-family="Helvetica,sans-Serif" font-size="10.00">URISMeshParameters</text>
</a>
</g>
</g>
<!-- Node0&#45;&gt;Node49 -->
<g id="edge57_Node000000_Node000049" class="edge">
<title>Node0&#45;&gt;Node49</title>
<g id="a_edge57_Node000000_Node000049"><a xlink:title=" ">
<path fill="none" stroke="#63b8ff" d="M46.24,-858.64C50.62,-746.26 74.62,-193.04 125,-138.5 134.16,-128.59 146.92,-123.11 160.14,-120.27"/>
<polygon fill="#63b8ff" stroke="#63b8ff" points="42.73,-858.75 45.85,-868.88 49.73,-859.02 42.73,-858.75"/>
</a>
</g>
</g>
<!-- Node50 -->
<g id="Node000050" class="node">
<title>Node50</title>
<g id="a_Node000050"><a xlink:href="class_variable_wall_props_parameters.html" target="_top" xlink:title="The VariableWallPropsParameters class stores parameters for variable wall properties for the CMM equa...">
<polygon fill="white" stroke="#666666" points="301.5,-93 141.5,-93 141.5,-74 301.5,-74 301.5,-93"/>
<text text-anchor="middle" x="221.5" y="-81" font-family="Helvetica,sans-Serif" font-size="10.00">VariableWallPropsParameters</text>
</a>
</g>
</g>
<!-- Node0&#45;&gt;Node50 -->
<g id="edge58_Node000000_Node000050" class="edge">
<title>Node0&#45;&gt;Node50</title>
<g id="a_edge58_Node000000_Node000050"><a xlink:title=" ">
<path fill="none" stroke="#63b8ff" d="M46.13,-858.74C50,-743.29 72.11,-159.05 125,-101.5 129.68,-96.41 135.31,-92.48 141.47,-89.49"/>
<polygon fill="#63b8ff" stroke="#63b8ff" points="42.63,-858.83 45.8,-868.94 49.62,-859.06 42.63,-858.83"/>
</a>
</g>
</g>
<!-- Node51 -->
<g id="Node000051" class="node">
<title>Node51</title>
<g id="a_Node000051"><a xlink:href="classsv_one_d_solver_interface_parameters.html" target="_top" xlink:title="Parameters for coupling to the svOneDSolver (1D blood&#45;flow solver).">
<polygon fill="white" stroke="#666666" points="314,-56 129,-56 129,-37 314,-37 314,-56"/>
<text text-anchor="middle" x="221.5" y="-44" font-family="Helvetica,sans-Serif" font-size="10.00">svOneDSolverInterfaceParameters</text>
</a>
</g>
</g>
<!-- Node0&#45;&gt;Node51 -->
<g id="edge59_Node000000_Node000051" class="edge">
<title>Node0&#45;&gt;Node51</title>
<g id="a_edge59_Node000000_Node000051"><a xlink:title=" ">
<path fill="none" stroke="#63b8ff" d="M46.04,-858.55C49.45,-739.39 69.64,-125.02 125,-64.5 127.96,-61.26 131.31,-58.5 134.93,-56.14"/>
<polygon fill="#63b8ff" stroke="#63b8ff" points="42.54,-858.67 45.76,-868.76 49.53,-858.86 42.54,-858.67"/>
</a>
</g>
</g>
<!-- Node52 -->
<g id="Node000052" class="node">
<title>Node52</title>
<g id="a_Node000052"><a xlink:href="classsv_zero_d_solver_interface_parameters.html" target="_top" xlink:title=" ">
<polygon fill="white" stroke="#666666" points="315.5,-19 127.5,-19 127.5,0 315.5,0 315.5,-19"/>
<text text-anchor="middle" x="221.5" y="-7" font-family="Helvetica,sans-Serif" font-size="10.00">svZeroDSolverInterfaceParameters</text>
</a>
</g>
</g>
<!-- Node0&#45;&gt;Node52 -->
<g id="edge60_Node000000_Node000052" class="edge">
<title>Node0&#45;&gt;Node52</title>
<g id="a_edge60_Node000000_Node000052"><a xlink:title=" ">
<path fill="none" stroke="#63b8ff" d="M45.95,-858.79C48.88,-737.08 67.1,-91.06 125,-27.5 127.95,-24.26 131.29,-21.49 134.91,-19.13"/>
<polygon fill="#63b8ff" stroke="#63b8ff" points="42.44,-858.81 45.71,-868.89 49.44,-858.97 42.44,-858.81"/>
</a>
</g>
</g>
<!-- Node26 -->
<g id="Node000026" class="node">
<title>Node26</title>
<g id="a_Node000026"><a xlink:href="class_aliev_panfilov_1_1_parameters.html" target="_top" xlink:title="Model parameters class.">
<polygon fill="white" stroke="#666666" points="505,-926 365,-926 365,-907 505,-907 505,-926"/>
<text text-anchor="middle" x="435" y="-914" font-family="Helvetica,sans-Serif" font-size="10.00">AlievPanfilov::Parameters</text>
</a>
</g>
</g>
<!-- Node25&#45;&gt;Node26 -->
<g id="edge34_Node000025_Node000026" class="edge">
<title>Node25&#45;&gt;Node26</title>
<g id="a_edge34_Node000025_Node000026"><a xlink:title=" ">
<path fill="none" stroke="#63b8ff" d="M294.05,-872.37C302.22,-874.42 310.35,-876.79 318,-879.5 335.05,-885.55 337.03,-892.24 354,-898.5 362.95,-901.8 372.69,-904.61 382.2,-906.95"/>
<polygon fill="#63b8ff" stroke="#63b8ff" points="294.63,-868.91 284.09,-870.03 293.02,-875.73 294.63,-868.91"/>
</a>
</g>
</g>
<!-- Node27 -->
<g id="Node000027" class="node">
<title>Node27</title>
<g id="a_Node000027"><a xlink:href="class_bueno_orovio_1_1_parameters.html" target="_top" xlink:title="Model parameters class.">
<polygon fill="white" stroke="#666666" points="505.5,-889 364.5,-889 364.5,-870 505.5,-870 505.5,-889"/>
<text text-anchor="middle" x="435" y="-877" font-family="Helvetica,sans-Serif" font-size="10.00">BuenoOrovio::Parameters</text>
</a>
</g>
</g>
<!-- Node25&#45;&gt;Node27 -->
<g id="edge35_Node000025_Node000027" class="edge">
<title>Node25&#45;&gt;Node27</title>
<g id="a_edge35_Node000025_Node000027"><a xlink:title=" ">
<path fill="none" stroke="#63b8ff" d="M294.45,-866.96C317.04,-868.99 341.94,-871.23 364.38,-873.25"/>
<polygon fill="#63b8ff" stroke="#63b8ff" points="294.52,-863.46 284.24,-866.05 293.89,-870.43 294.52,-863.46"/>
</a>
</g>
</g>
<!-- Node28 -->
<g id="Node000028" class="node">
<title>Node28</title>
<g id="a_Node000028"><a xlink:href="class_fitz_hugh_nagumo_1_1_parameters.html" target="_top" xlink:title="Model parameters class.">
<polygon fill="white" stroke="#666666" points="516,-852 354,-852 354,-833 516,-833 516,-852"/>
<text text-anchor="middle" x="435" y="-840" font-family="Helvetica,sans-Serif" font-size="10.00">FitzHughNagumo::Parameters</text>
</a>
</g>
</g>
<!-- Node25&#45;&gt;Node28 -->
<g id="edge36_Node000025_Node000028" class="edge">
<title>Node25&#45;&gt;Node28</title>
<g id="a_edge36_Node000025_Node000028"><a xlink:title=" ">
<path fill="none" stroke="#63b8ff" d="M294.36,-854.38C313.44,-852.76 334.16,-851 353.67,-849.34"/>
<polygon fill="#63b8ff" stroke="#63b8ff" points="293.91,-850.91 284.24,-855.25 294.5,-857.88 293.91,-850.91"/>
</a>
</g>
</g>
<!-- Node29 -->
<g id="Node000029" class="node">
<title>Node29</title>
<g id="a_Node000029"><a xlink:href="class_t_t_p_1_1_parameters.html" target="_top" xlink:title="Model parameters class.">
<polygon fill="white" stroke="#666666" points="483,-815 387,-815 387,-796 483,-796 483,-815"/>
<text text-anchor="middle" x="435" y="-803" font-family="Helvetica,sans-Serif" font-size="10.00">TTP::Parameters</text>
</a>
</g>
</g>
<!-- Node25&#45;&gt;Node29 -->
<g id="edge37_Node000025_Node000029" class="edge">
<title>Node25&#45;&gt;Node29</title>
<g id="a_edge37_Node000025_Node000029"><a xlink:title=" ">
<path fill="none" stroke="#63b8ff" d="M294.05,-849.45C302.22,-847.47 310.36,-845.17 318,-842.5 335.08,-836.54 337.03,-829.76 354,-823.5 364.42,-819.66 375.91,-816.48 386.86,-813.93"/>
<polygon fill="#63b8ff" stroke="#63b8ff" points="293.08,-846.08 284.09,-851.7 294.62,-852.91 293.08,-846.08"/>
</a>
</g>
</g>
</g>
</svg>
