<?xml version="1.0" encoding="UTF-8" standalone="no"?>
<!DOCTYPE svg PUBLIC "-//W3C//DTD SVG 1.1//EN"
 "http://www.w3.org/Graphics/SVG/1.1/DTD/svg11.dtd">
<!-- Generated by graphviz version 2.43.0 (0)
 -->
<!-- Title: Graphical Class Hierarchy Pages: 1 -->
<svg width="987pt" height="1494pt"
 viewBox="0.00 0.00 987.00 1493.50" xmlns="http://www.w3.org/2000/svg" xmlns:xlink="http://www.w3.org/1999/xlink">
<g id="graph0" class="graph" transform="scale(1 1) rotate(0) translate(4 1489.5)">
<title>Graphical Class Hierarchy</title>
<!-- Node0 -->
<g id="Node000000" class="node">
<title>Node0</title>
<g id="a_Node000000"><a xlink:title=" ">
<polygon fill="#e0e0e0" stroke="#999999" points="86,-791.5 0,-791.5 0,-772.5 86,-772.5 86,-791.5"/>
<text text-anchor="middle" x="43" y="-779.5" font-family="Helvetica,sans-Serif" font-size="10.00">std::exception</text>
</a>
</g>
</g>
<!-- Node1 -->
<g id="Node000001" class="node">
<title>Node1</title>
<g id="a_Node000001"><a xlink:href="class_boundary_condition_base_exception.html" target="_top" xlink:title="Base exception class for BC errors.">
<polygon fill="white" stroke="#666666" points="304,-1234.5 122,-1234.5 122,-1215.5 304,-1215.5 304,-1234.5"/>
<text text-anchor="middle" x="213" y="-1222.5" font-family="Helvetica,sans-Serif" font-size="10.00">BoundaryConditionBaseException</text>
</a>
</g>
</g>
<!-- Node0&#45;&gt;Node1 -->
<g id="edge61_Node000000_Node000001" class="edge">
<title>Node0&#45;&gt;Node1</title>
<g id="a_edge61_Node000000_Node000001"><a xlink:title=" ">
<path fill="none" stroke="#63b8ff" d="M51.21,-801.02C80.15,-877.33 187.29,-1159.85 208.38,-1215.46"/>
<polygon fill="#63b8ff" stroke="#63b8ff" points="54.48,-799.77 47.67,-791.66 47.94,-802.26 54.48,-799.77"/>
</a>
</g>
</g>
<!-- Node14 -->
<g id="Node000014" class="node">
<title>Node14</title>
<g id="a_Node000014"><a xlink:href="class_capping_surface_base_exception.html" target="_top" xlink:title="Base exception for capping surface (cap VTP) errors.">
<polygon fill="white" stroke="#666666" points="295.5,-791.5 130.5,-791.5 130.5,-772.5 295.5,-772.5 295.5,-791.5"/>
<text text-anchor="middle" x="213" y="-779.5" font-family="Helvetica,sans-Serif" font-size="10.00">CappingSurfaceBaseException</text>
</a>
</g>
</g>
<!-- Node0&#45;&gt;Node14 -->
<g id="edge74_Node000000_Node000014" class="edge">
<title>Node0&#45;&gt;Node14</title>
<g id="a_edge74_Node000000_Node000014"><a xlink:title=" ">
<path fill="none" stroke="#63b8ff" d="M96.44,-782C107.22,-782 118.8,-782 130.32,-782"/>
<polygon fill="#63b8ff" stroke="#63b8ff" points="96.39,-778.5 86.39,-782 96.39,-785.5 96.39,-778.5"/>
</a>
</g>
</g>
<!-- Node24 -->
<g id="Node000024" class="node">
<title>Node24</title>
<g id="a_Node000024"><a xlink:href="classsvmp_1_1_exception_base.html" target="_top" xlink:title=" ">
<polygon fill="white" stroke="#666666" points="274,-572.5 152,-572.5 152,-553.5 274,-553.5 274,-572.5"/>
<text text-anchor="middle" x="213" y="-560.5" font-family="Helvetica,sans-Serif" font-size="10.00">svmp::ExceptionBase</text>
</a>
</g>
</g>
<!-- Node0&#45;&gt;Node24 -->
<g id="edge84_Node000000_Node000024" class="edge">
<title>Node0&#45;&gt;Node24</title>
<g id="a_edge84_Node000000_Node000024"><a xlink:title=" ">
<path fill="none" stroke="#63b8ff" d="M57.65,-764.21C91.56,-720.01 178.76,-606.33 204.65,-572.58"/>
<polygon fill="#63b8ff" stroke="#63b8ff" points="54.75,-762.24 51.44,-772.31 60.3,-766.5 54.75,-762.24"/>
</a>
</g>
</g>
<!-- Node2 -->
<g id="Node000002" class="node">
<title>Node2</title>
<g id="a_Node000002"><a xlink:href="class_boundary_condition_array_exception.html" target="_top" xlink:title="Exception thrown when a requested array is not found.">
<polygon fill="white" stroke="#666666" points="528,-1485.5 344,-1485.5 344,-1466.5 528,-1466.5 528,-1485.5"/>
<text text-anchor="middle" x="436" y="-1473.5" font-family="Helvetica,sans-Serif" font-size="10.00">BoundaryConditionArrayException</text>
</a>
</g>
</g>
<!-- Node1&#45;&gt;Node2 -->
<g id="edge62_Node000001_Node000002" class="edge">
<title>Node1&#45;&gt;Node2</title>
<g id="a_edge62_Node000001_Node000002"><a xlink:title=" ">
<path fill="none" stroke="#63b8ff" d="M218.55,-1244.82C230.12,-1290.48 265.23,-1403.35 340,-1458 344.61,-1461.37 349.67,-1464.16 354.98,-1466.47"/>
<polygon fill="#63b8ff" stroke="#63b8ff" points="221.91,-1243.86 216.15,-1234.97 215.11,-1245.51 221.91,-1243.86"/>
</a>
</g>
</g>
<!-- Node3 -->
<g id="Node000003" class="node">
<title>Node3</title>
<g id="a_Node000003"><a xlink:href="class_boundary_condition_file_exception.html" target="_top" xlink:title="Exception thrown when VTP file cannot be read or is invalid.">
<polygon fill="white" stroke="#666666" points="523.5,-1448.5 348.5,-1448.5 348.5,-1429.5 523.5,-1429.5 523.5,-1448.5"/>
<text text-anchor="middle" x="436" y="-1436.5" font-family="Helvetica,sans-Serif" font-size="10.00">BoundaryConditionFileException</text>
</a>
</g>
</g>
<!-- Node1&#45;&gt;Node3 -->
<g id="edge63_Node000001_Node000003" class="edge">
<title>Node1&#45;&gt;Node3</title>
<g id="a_edge63_Node000001_Node000003"><a xlink:title=" ">
<path fill="none" stroke="#63b8ff" d="M220.48,-1244.37C234.95,-1284.45 273.95,-1376.45 340,-1421 345.01,-1424.38 350.49,-1427.16 356.21,-1429.45"/>
<polygon fill="#63b8ff" stroke="#63b8ff" points="223.71,-1243.02 217.11,-1234.73 217.1,-1245.32 223.71,-1243.02"/>
</a>
</g>
</g>
<!-- Node4 -->
<g id="Node000004" class="node">
<title>Node4</title>
<g id="a_Node000004"><a xlink:href="class_boundary_condition_flag_exception.html" target="_top" xlink:title="Exception thrown when a requested flag is not defined.">
<polygon fill="white" stroke="#666666" points="525.5,-1411.5 346.5,-1411.5 346.5,-1392.5 525.5,-1392.5 525.5,-1411.5"/>
<text text-anchor="middle" x="436" y="-1399.5" font-family="Helvetica,sans-Serif" font-size="10.00">BoundaryConditionFlagException</text>
</a>
</g>
</g>
<!-- Node1&#45;&gt;Node4 -->
<g id="edge64_Node000001_Node000004" class="edge">
<title>Node1&#45;&gt;Node4</title>
<g id="a_edge64_Node000001_Node000004"><a xlink:title=" ">
<path fill="none" stroke="#63b8ff" d="M223.37,-1244C241.11,-1277.84 282.99,-1348.24 340,-1383 346.32,-1386.85 353.27,-1389.94 360.45,-1392.42"/>
<polygon fill="#63b8ff" stroke="#63b8ff" points="226.31,-1242.07 218.65,-1234.76 220.08,-1245.25 226.31,-1242.07"/>
</a>
</g>
</g>
<!-- Node5 -->
<g id="Node000005" class="node">
<title>Node5</title>
<g id="a_Node000005"><a xlink:href="class_boundary_condition_global_node_id_exception.html" target="_top" xlink:title="Exception thrown when a global node ID is not found in the global&#45;to&#45;local map.">
<polygon fill="white" stroke="#666666" points="519.5,-1374 352.5,-1374 352.5,-1344 519.5,-1344 519.5,-1374"/>
<text text-anchor="start" x="360.5" y="-1362" font-family="Helvetica,sans-Serif" font-size="10.00">BoundaryConditionGlobalNode</text>
<text text-anchor="middle" x="436" y="-1351" font-family="Helvetica,sans-Serif" font-size="10.00">IdException</text>
</a>
</g>
</g>
<!-- Node1&#45;&gt;Node5 -->
<g id="edge65_Node000001_Node000005" class="edge">
<title>Node1&#45;&gt;Node5</title>
<g id="a_edge65_Node000001_Node000005"><a xlink:title=" ">
<path fill="none" stroke="#63b8ff" d="M228.88,-1242.36C250.75,-1266.76 293.98,-1310.89 340,-1335 346.48,-1338.39 353.46,-1341.33 360.6,-1343.85"/>
<polygon fill="#63b8ff" stroke="#63b8ff" points="231.3,-1239.81 222.07,-1234.62 226.04,-1244.44 231.3,-1239.81"/>
</a>
</g>
</g>
<!-- Node6 -->
<g id="Node000006" class="node">
<title>Node6</title>
<g id="a_Node000006"><a xlink:href="class_boundary_condition_node_count_exception.html" target="_top" xlink:title="Exception thrown when node count mismatch between VTP and face.">
<polygon fill="white" stroke="#666666" points="518,-1326 354,-1326 354,-1296 518,-1296 518,-1326"/>
<text text-anchor="start" x="362" y="-1314" font-family="Helvetica,sans-Serif" font-size="10.00">BoundaryConditionNodeCount</text>
<text text-anchor="middle" x="436" y="-1303" font-family="Helvetica,sans-Serif" font-size="10.00">Exception</text>
</a>
</g>
</g>
<!-- Node1&#45;&gt;Node6 -->
<g id="edge66_Node000001_Node000006" class="edge">
<title>Node1&#45;&gt;Node6</title>
<g id="a_edge66_Node000001_Node000006"><a xlink:title=" ">
<path fill="none" stroke="#63b8ff" d="M239.44,-1239.5C264.41,-1253.25 303.88,-1273.72 340,-1287 348.94,-1290.29 358.52,-1293.29 368.02,-1295.96"/>
<polygon fill="#63b8ff" stroke="#63b8ff" points="241.06,-1236.4 230.62,-1234.59 237.65,-1242.51 241.06,-1236.4"/>
</a>
</g>
</g>
<!-- Node7 -->
<g id="Node000007" class="node">
<title>Node7</title>
<g id="a_Node000007"><a xlink:href="class_boundary_condition_node_id_exception.html" target="_top" xlink:title="Exception thrown when a node ID is out of range.">
<polygon fill="white" stroke="#666666" points="532,-1277.5 340,-1277.5 340,-1258.5 532,-1258.5 532,-1277.5"/>
<text text-anchor="middle" x="436" y="-1265.5" font-family="Helvetica,sans-Serif" font-size="10.00">BoundaryConditionNodeIdException</text>
</a>
</g>
</g>
<!-- Node1&#45;&gt;Node7 -->
<g id="edge67_Node000001_Node000007" class="edge">
<title>Node1&#45;&gt;Node7</title>
<g id="a_edge67_Node000001_Node000007"><a xlink:title=" ">
<path fill="none" stroke="#63b8ff" d="M273.22,-1236.52C308.52,-1243.39 352.79,-1252 386.09,-1258.48"/>
<polygon fill="#63b8ff" stroke="#63b8ff" points="273.53,-1233.02 263.05,-1234.54 272.19,-1239.89 273.53,-1233.02"/>
</a>
</g>
</g>
<!-- Node8 -->
<g id="Node000008" class="node">
<title>Node8</title>
<g id="a_Node000008"><a xlink:href="class_boundary_condition_not_initialized_exception.html" target="_top" xlink:title="Exception thrown when BoundaryCondition is not properly initialized.">
<polygon fill="white" stroke="#666666" points="523.5,-1240 348.5,-1240 348.5,-1210 523.5,-1210 523.5,-1240"/>
<text text-anchor="start" x="356.5" y="-1228" font-family="Helvetica,sans-Serif" font-size="10.00">BoundaryConditionNotInitialized</text>
<text text-anchor="middle" x="436" y="-1217" font-family="Helvetica,sans-Serif" font-size="10.00">Exception</text>
</a>
</g>
</g>
<!-- Node1&#45;&gt;Node8 -->
<g id="edge68_Node000001_Node000008" class="edge">
<title>Node1&#45;&gt;Node8</title>
<g id="a_edge68_Node000001_Node000008"><a xlink:title=" ">
<path fill="none" stroke="#63b8ff" d="M314.51,-1225C325.79,-1225 337.21,-1225 348.29,-1225"/>
<polygon fill="#63b8ff" stroke="#63b8ff" points="314.21,-1221.5 304.21,-1225 314.21,-1228.5 314.21,-1221.5"/>
</a>
</g>
</g>
<!-- Node9 -->
<g id="Node000009" class="node">
<title>Node9</title>
<g id="a_Node000009"><a xlink:href="class_boundary_condition_null_face_exception.html" target="_top" xlink:title="Exception thrown when face_ is nullptr during distribute.">
<polygon fill="white" stroke="#666666" points="511.5,-1192 360.5,-1192 360.5,-1162 511.5,-1162 511.5,-1192"/>
<text text-anchor="start" x="368.5" y="-1180" font-family="Helvetica,sans-Serif" font-size="10.00">BoundaryConditionNullFace</text>
<text text-anchor="middle" x="436" y="-1169" font-family="Helvetica,sans-Serif" font-size="10.00">Exception</text>
</a>
</g>
</g>
<!-- Node1&#45;&gt;Node9 -->
<g id="edge69_Node000001_Node000009" class="edge">
<title>Node1&#45;&gt;Node9</title>
<g id="a_edge69_Node000001_Node000009"><a xlink:title=" ">
<path fill="none" stroke="#63b8ff" d="M268.03,-1213.26C297.53,-1206.86 334.36,-1198.86 365.92,-1192"/>
<polygon fill="#63b8ff" stroke="#63b8ff" points="266.96,-1209.92 257.93,-1215.46 268.44,-1216.76 266.96,-1209.92"/>
</a>
</g>
</g>
<!-- Node10 -->
<g id="Node000010" class="node">
<title>Node10</title>
<g id="a_Node000010"><a xlink:href="class_boundary_condition_point_not_found_exception.html" target="_top" xlink:title="Exception thrown when a point cannot be found in VTP file.">
<polygon fill="white" stroke="#666666" points="512,-1144 360,-1144 360,-1114 512,-1114 512,-1144"/>
<text text-anchor="start" x="368" y="-1132" font-family="Helvetica,sans-Serif" font-size="10.00">BoundaryConditionPointNot</text>
<text text-anchor="middle" x="436" y="-1121" font-family="Helvetica,sans-Serif" font-size="10.00">FoundException</text>
</a>
</g>
</g>
<!-- Node1&#45;&gt;Node10 -->
<g id="edge70_Node000001_Node000010" class="edge">
<title>Node1&#45;&gt;Node10</title>
<g id="a_edge70_Node000001_Node000010"><a xlink:title=" ">
<path fill="none" stroke="#63b8ff" d="M236.26,-1209.79C260.73,-1193.67 301.67,-1168.46 340,-1153 348.28,-1149.66 357.16,-1146.68 366.05,-1144.05"/>
<polygon fill="#63b8ff" stroke="#63b8ff" points="234.1,-1207.02 227.72,-1215.48 237.99,-1212.84 234.1,-1207.02"/>
</a>
</g>
</g>
<!-- Node11 -->
<g id="Node000011" class="node">
<title>Node11</title>
<g id="a_Node000011"><a xlink:href="class_boundary_condition_validation_exception.html" target="_top" xlink:title="Exception thrown when array validation fails.">
<polygon fill="white" stroke="#666666" points="515,-1096 357,-1096 357,-1066 515,-1066 515,-1096"/>
<text text-anchor="start" x="365" y="-1084" font-family="Helvetica,sans-Serif" font-size="10.00">BoundaryConditionValidation</text>
<text text-anchor="middle" x="436" y="-1073" font-family="Helvetica,sans-Serif" font-size="10.00">Exception</text>
</a>
</g>
</g>
<!-- Node1&#45;&gt;Node11 -->
<g id="edge71_Node000001_Node000011" class="edge">
<title>Node1&#45;&gt;Node11</title>
<g id="a_edge71_Node000001_Node000011"><a xlink:title=" ">
<path fill="none" stroke="#63b8ff" d="M227.61,-1207.15C248.73,-1180.73 292,-1131.49 340,-1105 346.26,-1101.55 353.02,-1098.58 359.95,-1096.04"/>
<polygon fill="#63b8ff" stroke="#63b8ff" points="224.74,-1205.14 221.32,-1215.17 230.25,-1209.46 224.74,-1205.14"/>
</a>
</g>
</g>
<!-- Node12 -->
<g id="Node000012" class="node">
<title>Node12</title>
<g id="a_Node000012"><a xlink:href="class_boundary_condition_vtp_array_dimension_exception.html" target="_top" xlink:title="Exception thrown when a VTP array has incorrect dimensions.">
<polygon fill="white" stroke="#666666" points="512,-1048 360,-1048 360,-1018 512,-1018 512,-1048"/>
<text text-anchor="start" x="368" y="-1036" font-family="Helvetica,sans-Serif" font-size="10.00">BoundaryConditionVtpArray</text>
<text text-anchor="middle" x="436" y="-1025" font-family="Helvetica,sans-Serif" font-size="10.00">DimensionException</text>
</a>
</g>
</g>
<!-- Node1&#45;&gt;Node12 -->
<g id="edge72_Node000001_Node000012" class="edge">
<title>Node1&#45;&gt;Node12</title>
<g id="a_edge72_Node000001_Node000012"><a xlink:title=" ">
<path fill="none" stroke="#63b8ff" d="M222.75,-1206.05C239.97,-1170.93 281.72,-1095.8 340,-1057 346.09,-1052.95 352.81,-1049.58 359.79,-1046.78"/>
<polygon fill="#63b8ff" stroke="#63b8ff" points="219.53,-1204.67 218.38,-1215.2 225.84,-1207.69 219.53,-1204.67"/>
</a>
</g>
</g>
<!-- Node13 -->
<g id="Node000013" class="node">
<title>Node13</title>
<g id="a_Node000013"><a xlink:href="class_boundary_condition_vtp_array_exception.html" target="_top" xlink:title="Exception thrown when a VTP file doesn&#39;t contain a required array.">
<polygon fill="white" stroke="#666666" points="512,-1000 360,-1000 360,-970 512,-970 512,-1000"/>
<text text-anchor="start" x="368" y="-988" font-family="Helvetica,sans-Serif" font-size="10.00">BoundaryConditionVtpArray</text>
<text text-anchor="middle" x="436" y="-977" font-family="Helvetica,sans-Serif" font-size="10.00">Exception</text>
</a>
</g>
</g>
<!-- Node1&#45;&gt;Node13 -->
<g id="edge73_Node000001_Node000013" class="edge">
<title>Node1&#45;&gt;Node13</title>
<g id="a_edge73_Node000001_Node000013"><a xlink:title=" ">
<path fill="none" stroke="#63b8ff" d="M219.57,-1205.77C232.89,-1163.29 270.75,-1061.11 340,-1009 345.98,-1004.5 352.71,-1000.84 359.76,-997.86"/>
<polygon fill="#63b8ff" stroke="#63b8ff" points="216.19,-1204.85 216.64,-1215.43 222.89,-1206.87 216.19,-1204.85"/>
</a>
</g>
</g>
<!-- Node15 -->
<g id="Node000015" class="node">
<title>Node15</title>
<g id="a_Node000015"><a xlink:href="class_capping_surface_assembly_exception.html" target="_top" xlink:title="Inconsistent cap connectivity or assembly indexing.">
<polygon fill="white" stroke="#666666" points="530.5,-951.5 341.5,-951.5 341.5,-932.5 530.5,-932.5 530.5,-951.5"/>
<text text-anchor="middle" x="436" y="-939.5" font-family="Helvetica,sans-Serif" font-size="10.00">CappingSurfaceAssemblyException</text>
</a>
</g>
</g>
<!-- Node14&#45;&gt;Node15 -->
<g id="edge75_Node000014_Node000015" class="edge">
<title>Node14&#45;&gt;Node15</title>
<g id="a_edge75_Node000014_Node000015"><a xlink:title=" ">
<path fill="none" stroke="#63b8ff" d="M224.63,-800.42C243.56,-831.38 286.2,-893.47 340,-924 345.99,-927.4 352.49,-930.17 359.2,-932.42"/>
<polygon fill="#63b8ff" stroke="#63b8ff" points="227.47,-798.33 219.34,-791.54 221.46,-801.92 227.47,-798.33"/>
</a>
</g>
</g>
<!-- Node16 -->
<g id="Node000016" class="node">
<title>Node16</title>
<g id="a_Node000016"><a xlink:href="class_capping_surface_copy_exception.html" target="_top" xlink:title="Failure copying a CappingSurface or its internal face.">
<polygon fill="white" stroke="#666666" points="519,-914.5 353,-914.5 353,-895.5 519,-895.5 519,-914.5"/>
<text text-anchor="middle" x="436" y="-902.5" font-family="Helvetica,sans-Serif" font-size="10.00">CappingSurfaceCopyException</text>
</a>
</g>
</g>
<!-- Node14&#45;&gt;Node16 -->
<g id="edge76_Node000014_Node000016" class="edge">
<title>Node14&#45;&gt;Node16</title>
<g id="a_edge76_Node000014_Node000016"><a xlink:title=" ">
<path fill="none" stroke="#63b8ff" d="M229.26,-799.04C251.29,-822.51 294.4,-864.32 340,-886 348.2,-889.9 357.17,-893 366.22,-895.46"/>
<polygon fill="#63b8ff" stroke="#63b8ff" points="231.73,-796.55 222.38,-791.57 226.58,-801.29 231.73,-796.55"/>
</a>
</g>
</g>
<!-- Node17 -->
<g id="Node000017" class="node">
<title>Node17</title>
<g id="a_Node000017"><a xlink:href="class_capping_surface_coupling_topology_exception.html" target="_top" xlink:title="Cap mesh shares no nodes with the coupled boundary face.">
<polygon fill="white" stroke="#666666" points="525.5,-877 346.5,-877 346.5,-847 525.5,-847 525.5,-877"/>
<text text-anchor="start" x="354.5" y="-865" font-family="Helvetica,sans-Serif" font-size="10.00">CappingSurfaceCouplingTopology</text>
<text text-anchor="middle" x="436" y="-854" font-family="Helvetica,sans-Serif" font-size="10.00">Exception</text>
</a>
</g>
</g>
<!-- Node14&#45;&gt;Node17 -->
<g id="edge77_Node000014_Node000017" class="edge">
<title>Node14&#45;&gt;Node17</title>
<g id="a_edge77_Node000014_Node000017"><a xlink:title=" ">
<path fill="none" stroke="#63b8ff" d="M242.1,-796.16C267.28,-808.43 305.45,-826.05 340,-838 349.41,-841.25 359.47,-844.27 369.41,-846.99"/>
<polygon fill="#63b8ff" stroke="#63b8ff" points="243.32,-792.85 232.8,-791.58 240.23,-799.13 243.32,-792.85"/>
</a>
</g>
</g>
<!-- Node18 -->
<g id="Node000018" class="node">
<title>Node18</title>
<g id="a_Node000018"><a xlink:href="class_capping_surface_file_exception.html" target="_top" xlink:title="Cap VTP file cannot be opened.">
<polygon fill="white" stroke="#666666" points="515,-828.5 357,-828.5 357,-809.5 515,-809.5 515,-828.5"/>
<text text-anchor="middle" x="436" y="-816.5" font-family="Helvetica,sans-Serif" font-size="10.00">CappingSurfaceFileException</text>
</a>
</g>
</g>
<!-- Node14&#45;&gt;Node18 -->
<g id="edge78_Node000014_Node000018" class="edge">
<title>Node14&#45;&gt;Node18</title>
<g id="a_edge78_Node000014_Node000018"><a xlink:title=" ">
<path fill="none" stroke="#63b8ff" d="M281.17,-793.25C312.07,-798.42 348.34,-804.49 377.9,-809.44"/>
<polygon fill="#63b8ff" stroke="#63b8ff" points="281.35,-789.73 270.91,-791.53 280.2,-796.63 281.35,-789.73"/>
</a>
</g>
</g>
<!-- Node19 -->
<g id="Node000019" class="node">
<title>Node19</title>
<g id="a_Node000019"><a xlink:href="class_capping_surface_geometry_exception.html" target="_top" xlink:title="Geometry or Jacobian error during cap surface integration.">
<polygon fill="white" stroke="#666666" points="531,-791.5 341,-791.5 341,-772.5 531,-772.5 531,-791.5"/>
<text text-anchor="middle" x="436" y="-779.5" font-family="Helvetica,sans-Serif" font-size="10.00">CappingSurfaceGeometryException</text>
</a>
</g>
</g>
<!-- Node14&#45;&gt;Node19 -->
<g id="edge79_Node000014_Node000019" class="edge">
<title>Node14&#45;&gt;Node19</title>
<g id="a_edge79_Node000014_Node000019"><a xlink:title=" ">
<path fill="none" stroke="#63b8ff" d="M305.79,-782C317.42,-782 329.33,-782 340.99,-782"/>
<polygon fill="#63b8ff" stroke="#63b8ff" points="305.66,-778.5 295.66,-782 305.66,-785.5 305.66,-778.5"/>
</a>
</g>
</g>
<!-- Node20 -->
<g id="Node000020" class="node">
<title>Node20</title>
<g id="a_Node000020"><a xlink:href="class_capping_surface_invalid_element_nodes_exception.html" target="_top" xlink:title="Cap VTP connectivity does not match expected TRI3 topology.">
<polygon fill="white" stroke="#666666" points="519.5,-754 352.5,-754 352.5,-724 519.5,-724 519.5,-754"/>
<text text-anchor="start" x="360.5" y="-742" font-family="Helvetica,sans-Serif" font-size="10.00">CappingSurfaceInvalidElement</text>
<text text-anchor="middle" x="436" y="-731" font-family="Helvetica,sans-Serif" font-size="10.00">NodesException</text>
</a>
</g>
</g>
<!-- Node14&#45;&gt;Node20 -->
<g id="edge80_Node000014_Node000020" class="edge">
<title>Node14&#45;&gt;Node20</title>
<g id="a_edge80_Node000014_Node000020"><a xlink:title=" ">
<path fill="none" stroke="#63b8ff" d="M273.13,-770.49C299.16,-765.43 330.07,-759.42 357.87,-754.01"/>
<polygon fill="#63b8ff" stroke="#63b8ff" points="272.19,-767.11 263.05,-772.46 273.53,-773.98 272.19,-767.11"/>
</a>
</g>
</g>
<!-- Node21 -->
<g id="Node000021" class="node">
<title>Node21</title>
<g id="a_Node000021"><a xlink:href="class_capping_surface_quadrature_exception.html" target="_top" xlink:title="Cap face quadrature (shape functions on TRI3) setup failed.">
<polygon fill="white" stroke="#666666" points="510,-706 362,-706 362,-676 510,-676 510,-706"/>
<text text-anchor="start" x="370" y="-694" font-family="Helvetica,sans-Serif" font-size="10.00">CappingSurfaceQuadrature</text>
<text text-anchor="middle" x="436" y="-683" font-family="Helvetica,sans-Serif" font-size="10.00">Exception</text>
</a>
</g>
</g>
<!-- Node14&#45;&gt;Node21 -->
<g id="edge81_Node000014_Node000021" class="edge">
<title>Node14&#45;&gt;Node21</title>
<g id="a_edge81_Node000014_Node000021"><a xlink:title=" ">
<path fill="none" stroke="#63b8ff" d="M238.03,-766.96C262.79,-752.01 302.9,-729.31 340,-715 348.57,-711.69 357.75,-708.72 366.91,-706.07"/>
<polygon fill="#63b8ff" stroke="#63b8ff" points="236.04,-764.07 229.33,-772.27 239.69,-770.05 236.04,-764.07"/>
</a>
</g>
</g>
<!-- Node22 -->
<g id="Node000022" class="node">
<title>Node22</title>
<g id="a_Node000022"><a xlink:href="class_capping_surface_unsupported_cell_exception.html" target="_top" xlink:title="Cap VTP uses an unsupported cell type (only TRI3 is supported).">
<polygon fill="white" stroke="#666666" points="513.5,-658 358.5,-658 358.5,-628 513.5,-628 513.5,-658"/>
<text text-anchor="start" x="366.5" y="-646" font-family="Helvetica,sans-Serif" font-size="10.00">CappingSurfaceUnsupported</text>
<text text-anchor="middle" x="436" y="-635" font-family="Helvetica,sans-Serif" font-size="10.00">CellException</text>
</a>
</g>
</g>
<!-- Node14&#45;&gt;Node22 -->
<g id="edge82_Node000014_Node000022" class="edge">
<title>Node14&#45;&gt;Node22</title>
<g id="a_edge82_Node000014_Node000022"><a xlink:title=" ">
<path fill="none" stroke="#63b8ff" d="M228.1,-764.54C249.55,-739.16 292.9,-692.34 340,-667 346.29,-663.61 353.08,-660.69 360.02,-658.18"/>
<polygon fill="#63b8ff" stroke="#63b8ff" points="225.38,-762.33 221.69,-772.26 230.77,-766.8 225.38,-762.33"/>
</a>
</g>
</g>
<!-- Node23 -->
<g id="Node000023" class="node">
<title>Node23</title>
<g id="a_Node000023"><a xlink:href="class_capping_surface_vtp_exception.html" target="_top" xlink:title="VTP read, parse, or validation error during cap load.">
<polygon fill="white" stroke="#666666" points="515,-609.5 357,-609.5 357,-590.5 515,-590.5 515,-609.5"/>
<text text-anchor="middle" x="436" y="-597.5" font-family="Helvetica,sans-Serif" font-size="10.00">CappingSurfaceVtpException</text>
</a>
</g>
</g>
<!-- Node14&#45;&gt;Node23 -->
<g id="edge83_Node000014_Node000023" class="edge">
<title>Node14&#45;&gt;Node23</title>
<g id="a_edge83_Node000014_Node000023"><a xlink:title=" ">
<path fill="none" stroke="#63b8ff" d="M222.73,-763.34C239.92,-728.82 281.62,-655.2 340,-619 346.15,-615.19 352.91,-612.12 359.91,-609.66"/>
<polygon fill="#63b8ff" stroke="#63b8ff" points="219.58,-761.82 218.37,-772.35 225.88,-764.88 219.58,-761.82"/>
</a>
</g>
</g>
<!-- Node25 -->
<g id="Node000025" class="node">
<title>Node25</title>
<g id="a_Node000025"><a xlink:href="classsvmp_1_1_core_exception.html" target="_top" xlink:title=" ">
<polygon fill="white" stroke="#666666" points="496,-572.5 376,-572.5 376,-553.5 496,-553.5 496,-572.5"/>
<text text-anchor="middle" x="436" y="-560.5" font-family="Helvetica,sans-Serif" font-size="10.00">svmp::CoreException</text>
</a>
</g>
</g>
<!-- Node24&#45;&gt;Node25 -->
<g id="edge85_Node000024_Node000025" class="edge">
<title>Node24&#45;&gt;Node25</title>
<g id="a_edge85_Node000024_Node000025"><a xlink:title=" ">
<path fill="none" stroke="#63b8ff" d="M284.3,-563C313.72,-563 347.54,-563 375.68,-563"/>
<polygon fill="#63b8ff" stroke="#63b8ff" points="284.1,-559.5 274.1,-563 284.1,-566.5 284.1,-559.5"/>
</a>
</g>
</g>
<!-- Node32 -->
<g id="Node000032" class="node">
<title>Node32</title>
<g id="a_Node000032"><a xlink:href="classsvmp_1_1_f_e_1_1_f_e_exception.html" target="_top" xlink:title="Base exception type for errors originating in the FE library.">
<polygon fill="white" stroke="#666666" points="500,-329.5 372,-329.5 372,-310.5 500,-310.5 500,-329.5"/>
<text text-anchor="middle" x="436" y="-317.5" font-family="Helvetica,sans-Serif" font-size="10.00">svmp::FE::FEException</text>
</a>
</g>
</g>
<!-- Node24&#45;&gt;Node32 -->
<g id="edge92_Node000024_Node000032" class="edge">
<title>Node24&#45;&gt;Node32</title>
<g id="a_edge92_Node000024_Node000032"><a xlink:title=" ">
<path fill="none" stroke="#63b8ff" d="M229.56,-545.89C272.65,-498.51 392.57,-366.65 426.16,-329.72"/>
<polygon fill="#63b8ff" stroke="#63b8ff" points="226.8,-543.72 222.66,-553.47 231.98,-548.43 226.8,-543.72"/>
</a>
</g>
</g>
<!-- Node26 -->
<g id="Node000026" class="node">
<title>Node26</title>
<g id="a_Node000026"><a xlink:href="classsvmp_1_1_dependency_exception.html" target="_top" xlink:title="A required dependency is missing or failed to load.">
<polygon fill="white" stroke="#666666" points="739,-683.5 581,-683.5 581,-664.5 739,-664.5 739,-683.5"/>
<text text-anchor="middle" x="660" y="-671.5" font-family="Helvetica,sans-Serif" font-size="10.00">svmp::DependencyException</text>
</a>
</g>
</g>
<!-- Node25&#45;&gt;Node26 -->
<g id="edge86_Node000025_Node000026" class="edge">
<title>Node25&#45;&gt;Node26</title>
<g id="a_edge86_Node000025_Node000026"><a xlink:title=" ">
<path fill="none" stroke="#63b8ff" d="M506.14,-568.95C515.45,-571.92 524.39,-576.12 532,-582 560.94,-604.36 539.03,-633.67 568,-656 572.34,-659.34 577.13,-662.11 582.17,-664.41"/>
<polygon fill="#63b8ff" stroke="#63b8ff" points="506.92,-565.53 496.35,-566.27 505.07,-572.28 506.92,-565.53"/>
</a>
</g>
</g>
<!-- Node27 -->
<g id="Node000027" class="node">
<title>Node27</title>
<g id="a_Node000027"><a xlink:href="classsvmp_1_1_file_format_exception.html" target="_top" xlink:title=" ">
<polygon fill="white" stroke="#666666" points="734.5,-646.5 585.5,-646.5 585.5,-627.5 734.5,-627.5 734.5,-646.5"/>
<text text-anchor="middle" x="660" y="-634.5" font-family="Helvetica,sans-Serif" font-size="10.00">svmp::FileFormatException</text>
</a>
</g>
</g>
<!-- Node25&#45;&gt;Node27 -->
<g id="edge87_Node000025_Node000027" class="edge">
<title>Node25&#45;&gt;Node27</title>
<g id="a_edge87_Node000025_Node000027"><a xlink:title=" ">
<path fill="none" stroke="#63b8ff" d="M506.03,-571.66C515.07,-574.26 523.97,-577.63 532,-582 552.15,-592.96 547.83,-608.06 568,-619 574.23,-622.38 581,-625.13 587.95,-627.37"/>
<polygon fill="#63b8ff" stroke="#63b8ff" points="506.75,-568.24 496.2,-569.14 505.01,-575.02 506.75,-568.24"/>
</a>
</g>
</g>
<!-- Node28 -->
<g id="Node000028" class="node">
<title>Node28</title>
<g id="a_Node000028"><a xlink:href="classsvmp_1_1_file_not_found_exception.html" target="_top" xlink:title=" ">
<polygon fill="white" stroke="#666666" points="740.5,-609.5 579.5,-609.5 579.5,-590.5 740.5,-590.5 740.5,-609.5"/>
<text text-anchor="middle" x="660" y="-597.5" font-family="Helvetica,sans-Serif" font-size="10.00">svmp::FileNotFoundException</text>
</a>
</g>
</g>
<!-- Node25&#45;&gt;Node28 -->
<g id="edge88_Node000025_Node000028" class="edge">
<title>Node25&#45;&gt;Node28</title>
<g id="a_edge88_Node000025_Node000028"><a xlink:title=" ">
<path fill="none" stroke="#63b8ff" d="M504.07,-574.18C535.19,-579.37 571.82,-585.47 601.64,-590.44"/>
<polygon fill="#63b8ff" stroke="#63b8ff" points="504.61,-570.72 494.17,-572.53 503.46,-577.62 504.61,-570.72"/>
</a>
</g>
</g>
<!-- Node29 -->
<g id="Node000029" class="node">
<title>Node29</title>
<g id="a_Node000029"><a xlink:href="classsvmp_1_1_index_out_of_range_exception.html" target="_top" xlink:title="An index is outside its valid range.">
<polygon fill="white" stroke="#666666" points="752,-572.5 568,-572.5 568,-553.5 752,-553.5 752,-572.5"/>
<text text-anchor="middle" x="660" y="-560.5" font-family="Helvetica,sans-Serif" font-size="10.00">svmp::IndexOutOfRangeException</text>
</a>
</g>
</g>
<!-- Node25&#45;&gt;Node29 -->
<g id="edge89_Node000025_Node000029" class="edge">
<title>Node25&#45;&gt;Node29</title>
<g id="a_edge89_Node000025_Node000029"><a xlink:title=" ">
<path fill="none" stroke="#63b8ff" d="M506.46,-563C525.89,-563 547.3,-563 567.78,-563"/>
<polygon fill="#63b8ff" stroke="#63b8ff" points="506.2,-559.5 496.2,-563 506.2,-566.5 506.2,-559.5"/>
</a>
</g>
</g>
<!-- Node30 -->
<g id="Node000030" class="node">
<title>Node30</title>
<g id="a_Node000030"><a xlink:href="classsvmp_1_1_not_implemented_exception.html" target="_top" xlink:title="A requested operation or feature is not implemented.">
<polygon fill="white" stroke="#666666" points="750,-535.5 570,-535.5 570,-516.5 750,-516.5 750,-535.5"/>
<text text-anchor="middle" x="660" y="-523.5" font-family="Helvetica,sans-Serif" font-size="10.00">svmp::NotImplementedException</text>
</a>
</g>
</g>
<!-- Node25&#45;&gt;Node30 -->
<g id="edge90_Node000025_Node000030" class="edge">
<title>Node25&#45;&gt;Node30</title>
<g id="a_edge90_Node000025_Node000030"><a xlink:title=" ">
<path fill="none" stroke="#63b8ff" d="M504.07,-551.82C535.19,-546.63 571.82,-540.53 601.64,-535.56"/>
<polygon fill="#63b8ff" stroke="#63b8ff" points="503.46,-548.38 494.17,-553.47 504.61,-555.28 503.46,-548.38"/>
</a>
</g>
</g>
<!-- Node31 -->
<g id="Node000031" class="node">
<title>Node31</title>
<g id="a_Node000031"><a xlink:href="classsvmp_1_1_parse_exception.html" target="_top" xlink:title="A parsing or input&#45;format error.">
<polygon fill="white" stroke="#666666" points="722,-498.5 598,-498.5 598,-479.5 722,-479.5 722,-498.5"/>
<text text-anchor="middle" x="660" y="-486.5" font-family="Helvetica,sans-Serif" font-size="10.00">svmp::ParseException</text>
</a>
</g>
</g>
<!-- Node25&#45;&gt;Node31 -->
<g id="edge91_Node000025_Node000031" class="edge">
<title>Node25&#45;&gt;Node31</title>
<g id="a_edge91_Node000025_Node000031"><a xlink:title=" ">
<path fill="none" stroke="#63b8ff" d="M465.85,-549C492,-536.76 531.87,-519.24 568,-508 579.71,-504.36 592.49,-501.2 604.67,-498.57"/>
<polygon fill="#63b8ff" stroke="#63b8ff" points="464.08,-545.96 456.53,-553.4 467.07,-552.29 464.08,-545.96"/>
</a>
</g>
</g>
<!-- Node33 -->
<g id="Node000033" class="node">
<title>Node33</title>
<g id="a_Node000033"><a xlink:href="classsvmp_1_1_f_e_1_1_assembly_exception.html" target="_top" xlink:title="Global assembly failure.">
<polygon fill="white" stroke="#666666" points="742,-461.5 578,-461.5 578,-442.5 742,-442.5 742,-461.5"/>
<text text-anchor="middle" x="660" y="-449.5" font-family="Helvetica,sans-Serif" font-size="10.00">svmp::FE::AssemblyException</text>
</a>
</g>
</g>
<!-- Node32&#45;&gt;Node33 -->
<g id="edge93_Node000032_Node000033" class="edge">
<title>Node32&#45;&gt;Node33</title>
<g id="a_edge93_Node000032_Node000033"><a xlink:title=" ">
<path fill="none" stroke="#63b8ff" d="M451.68,-337.61C474.01,-363.16 519.11,-410.04 568,-434 574.94,-437.4 582.48,-440.16 590.15,-442.4"/>
<polygon fill="#63b8ff" stroke="#63b8ff" points="454.17,-335.14 445.01,-329.83 448.86,-339.7 454.17,-335.14"/>
</a>
</g>
</g>
<!-- Node34 -->
<g id="Node000034" class="node">
<title>Node34</title>
<g id="a_Node000034"><a xlink:href="classsvmp_1_1_f_e_1_1_backend_exception.html" target="_top" xlink:title="Failure reported by a linear&#45;algebra or solver backend.">
<polygon fill="white" stroke="#666666" points="738.5,-424.5 581.5,-424.5 581.5,-405.5 738.5,-405.5 738.5,-424.5"/>
<text text-anchor="middle" x="660" y="-412.5" font-family="Helvetica,sans-Serif" font-size="10.00">svmp::FE::BackendException</text>
</a>
</g>
</g>
<!-- Node32&#45;&gt;Node34 -->
<g id="edge94_Node000032_Node000034" class="edge">
<title>Node32&#45;&gt;Node34</title>
<g id="a_edge94_Node000032_Node000034"><a xlink:title=" ">
<path fill="none" stroke="#63b8ff" d="M458.36,-335.63C483.39,-353.2 526.71,-381.3 568,-397 576.88,-400.38 586.5,-403.15 596.05,-405.43"/>
<polygon fill="#63b8ff" stroke="#63b8ff" points="460.18,-332.63 450.01,-329.68 456.12,-338.33 460.18,-332.63"/>
</a>
</g>
</g>
<!-- Node35 -->
<g id="Node000035" class="node">
<title>Node35</title>
<g id="a_Node000035"><a xlink:href="classsvmp_1_1_f_e_1_1_convergence_exception.html" target="_top" xlink:title="Iterative process failed to converge.">
<polygon fill="white" stroke="#666666" points="749.5,-387.5 570.5,-387.5 570.5,-368.5 749.5,-368.5 749.5,-387.5"/>
<text text-anchor="middle" x="660" y="-375.5" font-family="Helvetica,sans-Serif" font-size="10.00">svmp::FE::ConvergenceException</text>
</a>
</g>
</g>
<!-- Node32&#45;&gt;Node35 -->
<g id="edge95_Node000032_Node000035" class="edge">
<title>Node32&#45;&gt;Node35</title>
<g id="a_edge95_Node000032_Node000035"><a xlink:title=" ">
<path fill="none" stroke="#63b8ff" d="M475.21,-332.79C501.19,-341.2 536.44,-352.08 568,-360 580.18,-363.06 593.39,-365.92 605.87,-368.43"/>
<polygon fill="#63b8ff" stroke="#63b8ff" points="475.98,-329.35 465.39,-329.58 473.81,-336.01 475.98,-329.35"/>
</a>
</g>
</g>
<!-- Node36 -->
<g id="Node000036" class="node">
<title>Node36</title>
<g id="a_Node000036"><a xlink:href="classsvmp_1_1_f_e_1_1_dof_exception.html" target="_top" xlink:title="Degree&#45;of&#45;freedom numbering or lookup failure.">
<polygon fill="white" stroke="#666666" points="726.5,-350.5 593.5,-350.5 593.5,-331.5 726.5,-331.5 726.5,-350.5"/>
<text text-anchor="middle" x="660" y="-338.5" font-family="Helvetica,sans-Serif" font-size="10.00">svmp::FE::DofException</text>
</a>
</g>
</g>
<!-- Node32&#45;&gt;Node36 -->
<g id="edge96_Node000032_Node000036" class="edge">
<title>Node32&#45;&gt;Node36</title>
<g id="a_edge96_Node000032_Node000036"><a xlink:title=" ">
<path fill="none" stroke="#63b8ff" d="M510.15,-326.92C537.05,-329.46 567.32,-332.33 593.5,-334.8"/>
<polygon fill="#63b8ff" stroke="#63b8ff" points="510.31,-323.42 500.02,-325.96 509.65,-330.39 510.31,-323.42"/>
</a>
</g>
</g>
<!-- Node37 -->
<g id="Node000037" class="node">
<title>Node37</title>
<g id="a_Node000037"><a xlink:href="classsvmp_1_1_f_e_1_1_invalid_argument_exception.html" target="_top" xlink:title="An argument failed validation.">
<polygon fill="white" stroke="#666666" points="734.5,-313 585.5,-313 585.5,-283 734.5,-283 734.5,-313"/>
<text text-anchor="start" x="593.5" y="-301" font-family="Helvetica,sans-Serif" font-size="10.00">svmp::FE::InvalidArgument</text>
<text text-anchor="middle" x="660" y="-290" font-family="Helvetica,sans-Serif" font-size="10.00">Exception</text>
</a>
</g>
</g>
<!-- Node32&#45;&gt;Node37 -->
<g id="edge97_Node000032_Node000037" class="edge">
<title>Node32&#45;&gt;Node37</title>
<g id="a_edge97_Node000032_Node000037"><a xlink:title=" ">
<path fill="none" stroke="#63b8ff" d="M510.17,-312.75C534.27,-310.36 561.07,-307.7 585.22,-305.31"/>
<polygon fill="#63b8ff" stroke="#63b8ff" points="509.63,-309.29 500.02,-313.75 510.32,-316.25 509.63,-309.29"/>
</a>
</g>
</g>
<!-- Node38 -->
<g id="Node000038" class="node">
<title>Node38</title>
<g id="a_Node000038"><a xlink:href="classsvmp_1_1_f_e_1_1_invalid_element_exception.html" target="_top" xlink:title="Unsupported or malformed element request.">
<polygon fill="white" stroke="#666666" points="730.5,-265 589.5,-265 589.5,-235 730.5,-235 730.5,-265"/>
<text text-anchor="start" x="597.5" y="-253" font-family="Helvetica,sans-Serif" font-size="10.00">svmp::FE::InvalidElement</text>
<text text-anchor="middle" x="660" y="-242" font-family="Helvetica,sans-Serif" font-size="10.00">Exception</text>
</a>
</g>
</g>
<!-- Node32&#45;&gt;Node38 -->
<g id="edge98_Node000032_Node000038" class="edge">
<title>Node32&#45;&gt;Node38</title>
<g id="a_edge98_Node000032_Node000038"><a xlink:title=" ">
<path fill="none" stroke="#63b8ff" d="M471.91,-306.89C498.16,-297.24 535.1,-284.1 568,-274 578,-270.93 588.68,-267.9 599.09,-265.07"/>
<polygon fill="#63b8ff" stroke="#63b8ff" points="470.57,-303.65 462.4,-310.4 473,-310.22 470.57,-303.65"/>
</a>
</g>
</g>
<!-- Node39 -->
<g id="Node000039" class="node">
<title>Node39</title>
<g id="a_Node000039"><a xlink:href="classsvmp_1_1_f_e_1_1_not_initialized_exception.html" target="_top" xlink:title="Required initialization step has not been performed.">
<polygon fill="white" stroke="#666666" points="726.5,-217 593.5,-217 593.5,-187 726.5,-187 726.5,-217"/>
<text text-anchor="start" x="601.5" y="-205" font-family="Helvetica,sans-Serif" font-size="10.00">svmp::FE::NotInitialized</text>
<text text-anchor="middle" x="660" y="-194" font-family="Helvetica,sans-Serif" font-size="10.00">Exception</text>
</a>
</g>
</g>
<!-- Node32&#45;&gt;Node39 -->
<g id="edge99_Node000032_Node000039" class="edge">
<title>Node32&#45;&gt;Node39</title>
<g id="a_edge99_Node000032_Node000039"><a xlink:title=" ">
<path fill="none" stroke="#63b8ff" d="M454.97,-303.79C479.03,-282.9 523.83,-246.8 568,-226 575.98,-222.24 584.65,-219 593.35,-216.23"/>
<polygon fill="#63b8ff" stroke="#63b8ff" points="452.55,-301.26 447.36,-310.49 457.17,-306.51 452.55,-301.26"/>
</a>
</g>
</g>
<!-- Node40 -->
<g id="Node000040" class="node">
<title>Node40</title>
<g id="a_Node000040"><a xlink:href="classsvmp_1_1_f_e_1_1_singular_mapping_exception.html" target="_top" xlink:title="Element geometric mapping is singular or inverted.">
<polygon fill="white" stroke="#666666" points="734.5,-169 585.5,-169 585.5,-139 734.5,-139 734.5,-169"/>
<text text-anchor="start" x="593.5" y="-157" font-family="Helvetica,sans-Serif" font-size="10.00">svmp::FE::SingularMapping</text>
<text text-anchor="middle" x="660" y="-146" font-family="Helvetica,sans-Serif" font-size="10.00">Exception</text>
</a>
</g>
</g>
<!-- Node32&#45;&gt;Node40 -->
<g id="edge100_Node000032_Node000040" class="edge">
<title>Node32&#45;&gt;Node40</title>
<g id="a_edge100_Node000032_Node000040"><a xlink:title=" ">
<path fill="none" stroke="#63b8ff" d="M448.51,-301.95C468.84,-271.59 514.09,-210.45 568,-178 573.74,-174.55 579.97,-171.58 586.4,-169.04"/>
<polygon fill="#63b8ff" stroke="#63b8ff" points="445.58,-300.04 443.02,-310.32 451.44,-303.88 445.58,-300.04"/>
</a>
</g>
</g>
<!-- Node41 -->
<g id="Node000041" class="node">
<title>Node41</title>
<g id="a_Node000041"><a xlink:href="classsvmp_1_1_f_e_1_1basis_1_1_basis_exception.html" target="_top" xlink:title="Base exception type for errors originating in the Basis module.">
<polygon fill="white" stroke="#666666" points="746.5,-120.5 573.5,-120.5 573.5,-101.5 746.5,-101.5 746.5,-120.5"/>
<text text-anchor="middle" x="660" y="-108.5" font-family="Helvetica,sans-Serif" font-size="10.00">svmp::FE::basis::BasisException</text>
</a>
</g>
</g>
<!-- Node32&#45;&gt;Node41 -->
<g id="edge101_Node000032_Node000041" class="edge">
<title>Node32&#45;&gt;Node41</title>
<g id="a_edge101_Node000032_Node000041"><a xlink:title=" ">
<path fill="none" stroke="#63b8ff" d="M444.53,-300.51C460.72,-261.4 502.72,-173.38 568,-130 573.78,-126.16 580.19,-123.07 586.84,-120.6"/>
<polygon fill="#63b8ff" stroke="#63b8ff" points="441.13,-299.58 440.65,-310.17 447.63,-302.19 441.13,-299.58"/>
</a>
</g>
</g>
<!-- Node42 -->
<g id="Node000042" class="node">
<title>Node42</title>
<g id="a_Node000042"><a xlink:href="classsvmp_1_1_f_e_1_1basis_1_1_basis_configuration_exception.html" target="_top" xlink:title="Invalid Basis request or configuration.">
<polygon fill="white" stroke="#666666" points="979,-222 788,-222 788,-192 979,-192 979,-222"/>
<text text-anchor="start" x="796" y="-210" font-family="Helvetica,sans-Serif" font-size="10.00">svmp::FE::basis::BasisConfiguration</text>
<text text-anchor="middle" x="883.5" y="-199" font-family="Helvetica,sans-Serif" font-size="10.00">Exception</text>
</a>
</g>
</g>
<!-- Node41&#45;&gt;Node42 -->
<g id="edge102_Node000041_Node000042" class="edge">
<title>Node41&#45;&gt;Node42</title>
<g id="a_edge102_Node000041_Node000042"><a xlink:title=" ">
<path fill="none" stroke="#63b8ff" d="M742.63,-124.61C745.89,-126.22 749.03,-128.01 752,-130 775.66,-145.84 764.68,-166.65 788,-183 792.85,-186.4 798.14,-189.32 803.66,-191.83"/>
<polygon fill="#63b8ff" stroke="#63b8ff" points="743.75,-121.29 733.18,-120.55 740.99,-127.72 743.75,-121.29"/>
</a>
</g>
</g>
<!-- Node43 -->
<g id="Node000043" class="node">
<title>Node43</title>
<g id="a_Node000043"><a xlink:href="classsvmp_1_1_f_e_1_1basis_1_1_basis_construction_exception.html" target="_top" xlink:title="Internal basis construction or transform setup failure.">
<polygon fill="white" stroke="#666666" points="977,-174 790,-174 790,-144 977,-144 977,-174"/>
<text text-anchor="start" x="798" y="-162" font-family="Helvetica,sans-Serif" font-size="10.00">svmp::FE::basis::BasisConstruction</text>
<text text-anchor="middle" x="883.5" y="-151" font-family="Helvetica,sans-Serif" font-size="10.00">Exception</text>
</a>
</g>
</g>
<!-- Node41&#45;&gt;Node43 -->
<g id="edge103_Node000041_Node000043" class="edge">
<title>Node41&#45;&gt;Node43</title>
<g id="a_edge103_Node000041_Node000043"><a xlink:title=" ">
<path fill="none" stroke="#63b8ff" d="M717.26,-122.63C728.76,-125.04 740.77,-127.58 752,-130 772.65,-134.45 795.1,-139.4 815.48,-143.93"/>
<polygon fill="#63b8ff" stroke="#63b8ff" points="717.82,-119.17 707.32,-120.55 716.39,-126.02 717.82,-119.17"/>
</a>
</g>
</g>
<!-- Node44 -->
<g id="Node000044" class="node">
<title>Node44</title>
<g id="a_Node000044"><a xlink:href="classsvmp_1_1_f_e_1_1basis_1_1_basis_element_compatibility_exception.html" target="_top" xlink:title="Requested element topology is incompatible with the basis family.">
<polygon fill="white" stroke="#666666" points="966.5,-126 800.5,-126 800.5,-96 966.5,-96 966.5,-126"/>
<text text-anchor="start" x="808.5" y="-114" font-family="Helvetica,sans-Serif" font-size="10.00">svmp::FE::basis::BasisElement</text>
<text text-anchor="middle" x="883.5" y="-103" font-family="Helvetica,sans-Serif" font-size="10.00">CompatibilityException</text>
</a>
</g>
</g>
<!-- Node41&#45;&gt;Node44 -->
<g id="edge104_Node000041_Node000044" class="edge">
<title>Node41&#45;&gt;Node44</title>
<g id="a_edge104_Node000041_Node000044"><a xlink:title=" ">
<path fill="none" stroke="#63b8ff" d="M756.65,-111C771.21,-111 786.13,-111 800.36,-111"/>
<polygon fill="#63b8ff" stroke="#63b8ff" points="756.64,-107.5 746.64,-111 756.64,-114.5 756.64,-107.5"/>
</a>
</g>
</g>
<!-- Node45 -->
<g id="Node000045" class="node">
<title>Node45</title>
<g id="a_Node000045"><a xlink:href="classsvmp_1_1_f_e_1_1basis_1_1_basis_evaluation_exception.html" target="_top" xlink:title="Basis evaluation request cannot be satisfied.">
<polygon fill="white" stroke="#666666" points="972,-78 795,-78 795,-48 972,-48 972,-78"/>
<text text-anchor="start" x="803" y="-66" font-family="Helvetica,sans-Serif" font-size="10.00">svmp::FE::basis::BasisEvaluation</text>
<text text-anchor="middle" x="883.5" y="-55" font-family="Helvetica,sans-Serif" font-size="10.00">Exception</text>
</a>
</g>
</g>
<!-- Node41&#45;&gt;Node45 -->
<g id="edge105_Node000041_Node000045" class="edge">
<title>Node41&#45;&gt;Node45</title>
<g id="a_edge105_Node000041_Node000045"><a xlink:title=" ">
<path fill="none" stroke="#63b8ff" d="M715.15,-99.26C744.72,-92.86 781.63,-84.86 813.26,-78"/>
<polygon fill="#63b8ff" stroke="#63b8ff" points="714.06,-95.92 705.03,-101.46 715.54,-102.76 714.06,-95.92"/>
</a>
</g>
</g>
<!-- Node46 -->
<g id="Node000046" class="node">
<title>Node46</title>
<g id="a_Node000046"><a xlink:href="classsvmp_1_1_f_e_1_1basis_1_1_basis_node_ordering_exception.html" target="_top" xlink:title="Public&#45;to&#45;canonical node ordering or coordinate lookup failure.">
<polygon fill="white" stroke="#666666" points="959,-30 808,-30 808,0 959,0 959,-30"/>
<text text-anchor="start" x="816" y="-18" font-family="Helvetica,sans-Serif" font-size="10.00">svmp::FE::basis::BasisNode</text>
<text text-anchor="middle" x="883.5" y="-7" font-family="Helvetica,sans-Serif" font-size="10.00">OrderingException</text>
</a>
</g>
</g>
<!-- Node41&#45;&gt;Node46 -->
<g id="edge106_Node000041_Node000046" class="edge">
<title>Node41&#45;&gt;Node46</title>
<g id="a_edge106_Node000041_Node000046"><a xlink:title=" ">
<path fill="none" stroke="#63b8ff" d="M683.46,-95.81C708.14,-79.71 749.42,-54.51 788,-39 796.32,-35.65 805.25,-32.66 814.18,-30.03"/>
<polygon fill="#63b8ff" stroke="#63b8ff" points="681.26,-93.06 674.85,-101.49 685.12,-98.9 681.26,-93.06"/>
</a>
</g>
</g>
</g>
</svg>
